<?xml version="1.0" encoding="UTF-8" standalone="no"?>
<!-- Created with Inkscape (http://www.inkscape.org/) -->

<svg
   width="150.98454mm"
   height="150.98454mm"
   viewBox="0 0 150.98454 150.98454"
   version="1.1"
   id="svg1"
   xml:space="preserve"
   inkscape:version="1.3.2 (091e20e, 2023-11-25, custom)"
   sodipodi:docname="logo.svg"
   xmlns:inkscape="http://www.inkscape.org/namespaces/inkscape"
   xmlns:sodipodi="http://sodipodi.sourceforge.net/DTD/sodipodi-0.dtd"
   xmlns="http://www.w3.org/2000/svg"
   xmlns:svg="http://www.w3.org/2000/svg"><sodipodi:namedview
     id="namedview1"
     pagecolor="#ffffff"
     bordercolor="#000000"
     borderopacity="0.25"
     inkscape:showpageshadow="2"
     inkscape:pageopacity="0.0"
     inkscape:pagecheckerboard="0"
     inkscape:deskcolor="#d1d1d1"
     inkscape:document-units="mm"
     inkscape:zoom="0.69219276"
     inkscape:cx="285.32515"
     inkscape:cy="284.6028"
     inkscape:window-width="1920"
     inkscape:window-height="991"
     inkscape:window-x="-9"
     inkscape:window-y="-9"
     inkscape:window-maximized="1"
     inkscape:current-layer="layer1" /><defs
     id="defs1" /><g
     inkscape:label="Katman 1"
     inkscape:groupmode="layer"
     id="layer1"
     transform="translate(-29.507729,-73.007729)"><path
       style="fill:#c48000;fill-opacity:1"
       d="m 83.822161,208.38892 c -0.12202,-0.19743 0.1986,-0.22884 1.0432,-0.10218 1.65518,0.24821 2.54132,-0.31084 2.54132,-1.60326 v -0.91995 h -2.11667 c -1.16417,0 -2.11667,-0.11078 -2.11667,-0.24618 0,-0.1354 -0.26789,-0.28423 -0.59531,-0.33073 -0.94092,-0.13363 -0.69631,-0.58175 0.52925,-0.96957 1.33226,-0.42159 1.26938,-0.70164 -0.21068,-0.93831 -0.91067,-0.14563 -2.95596,-1.48396 -2.26784,-1.48396 0.12547,0 0.0799,-0.17859 -0.10125,-0.39687 -0.53229,-0.64138 -0.79278,-0.45817 -0.61468,0.43231 0.13049,0.65246 0.0868,0.79347 -0.20506,0.66163 -0.20399,-0.0922 -0.56449,-0.2372 -0.80112,-0.32231 -0.23664,-0.0851 -0.58418,-0.44237 -0.77232,-0.79392 -0.41333,-0.77232 -0.89818,-0.84813 -0.70523,-0.11027 0.31359,1.19915 -0.36932,0.69559 -1.15666,-0.8529 -0.46432,-0.91321 -1.23621,-2.43428 -1.715312,-3.38017 -0.479097,-0.94588 -1.474713,-2.36488 -2.212479,-3.15332 -0.737766,-0.78844 -1.284907,-1.49002 -1.215868,-1.55906 0.06904,-0.069 0.306995,0.0251 0.528793,0.20916 0.221798,0.18408 0.403269,0.24794 0.403269,0.14193 0,-0.22058 -1.030841,-1.08115 -2.223732,-1.85642 l -0.814217,-0.52916 0.725225,0.95101 c 0.829139,1.08729 0.895775,1.44047 0.313902,1.66375 -0.513702,0.19713 -1.814284,-0.73979 -2.198983,-1.58411 -0.158821,-0.34858 -0.407324,-0.63378 -0.552228,-0.63378 -0.144903,0 -0.456588,-0.37346 -0.692632,-0.82992 l -0.429171,-0.82993 0.776604,0.55299 c 0.427133,0.30415 0.929437,0.73715 1.116232,0.96222 0.186795,0.22507 0.473877,0.40791 0.63796,0.40631 0.164082,-0.002 -0.356512,-0.59177 -1.156876,-1.31146 -2.572856,-2.31355 -0.646766,-1.38429 4.231724,2.04162 l 0.65985,0.46338 -0.593704,-0.76328 c -0.326537,-0.41981 -0.593704,-0.93385 -0.593704,-1.14231 0,-0.5323 1.062851,-0.18095 1.647763,0.54471 0.251426,0.31192 0.459785,0.46422 0.463021,0.33844 0.01311,-0.5098 -1.680518,-5.76112 -2.656875,-8.23798 -0.57363,-1.4552 -1.042614,-2.78615 -1.042187,-2.95766 4.28e-4,-0.17151 -0.155133,-0.46916 -0.345692,-0.66146 -0.570776,-0.57598 -1.240802,-2.1039 -1.244375,-2.83767 -0.0018,-0.37783 -0.364452,-1.87758 -0.805804,-3.33279 -0.441352,-1.45521 -1.218138,-4.13411 -1.726191,-5.95312 -0.508054,-1.81902 -1.097624,-3.90261 -1.310157,-4.63021 -1.121091,-3.83805 -1.459528,-6.27929 -0.917003,-6.61459 0.145521,-0.0899 0.273983,-0.42438 0.285472,-0.74322 0.01932,-0.53625 0.03638,-0.53012 0.227642,0.0818 0.603142,1.92961 0.888991,3.59203 1.069123,6.21771 0.236167,3.44249 1.17644,7.17465 1.852079,7.35133 0.356943,0.0933 0.484767,0.53161 0.604339,2.07207 0.187555,2.4163 0.385964,3.00535 0.875446,2.59912 0.194912,-0.16176 0.448898,-0.23563 0.564413,-0.16416 0.115516,0.0715 0.174534,-2.25065 0.131152,-5.16029 -0.05094,-3.41632 0.01938,-5.40865 0.198521,-5.62449 0.152568,-0.18384 0.354058,-1.24115 0.447756,-2.34959 0.0937,-1.10845 0.272253,-1.95238 0.396791,-1.87541 0.124538,0.077 0.238301,-0.1945 0.252807,-0.60327 l 0.02637,-0.74322 0.201578,0.66145 c 0.181833,0.59667 0.213769,0.55779 0.326024,-0.39687 0.07702,-0.65498 0.153095,-0.15078 0.199616,1.32292 0.07536,2.38741 0.105418,2.43194 0.404325,0.59907 0.09217,-0.56515 0.297992,-0.96171 0.480639,-0.92604 0.185666,0.0363 0.354832,-0.30664 0.403941,-0.81878 0.05727,-0.59722 0.19646,-0.8382 0.431958,-0.74783 0.341756,0.13115 1.071371,-1.21016 1.27273,-2.33976 0.05188,-0.29104 0.236085,-0.4994 0.409343,-0.46302 0.178797,0.0375 0.315016,-0.22663 0.315016,-0.61093 0,-0.384 0.114523,-0.60629 0.264583,-0.51355 0.16408,0.10141 0.26458,-0.38678 0.26458,-1.28525 0,-0.8228 0.12638,-1.4909 0.29249,-1.54627 0.35408,-0.11803 0.0396,-4.17994 -0.32357,-4.17994 -0.12843,0 -0.2335,-0.33062 -0.2335,-0.73472 0,-0.43985 -0.404318,-1.27282 -1.007418,-2.07547 -0.896394,-1.19299 -3.225915,-5.35462 -3.225915,-5.76302 0,-0.49444 0.46978,-0.0283 0.748621,0.74283 0.179167,0.49548 0.590039,1.0744 0.913048,1.2865 l 0.587289,0.38563 -0.13246,-2.67556 c -0.141398,-2.85612 -0.249061,-3.16437 -1.720281,-4.92531 -0.522197,-0.62503 -1.37233,-1.77351 -1.889185,-2.55219 -0.516856,-0.77867 -1.039199,-1.41577 -1.160763,-1.41577 -0.121565,0 -0.303601,-0.26789 -0.404526,-0.59531 -0.100924,-0.32742 -0.525667,-1.06525 -0.943871,-1.63963 -0.941619,-1.29324 -0.987036,-1.88844 -0.06164,-0.80777 0.664752,0.77629 0.676263,0.7792 0.523264,0.13229 -0.08604,-0.3638 -0.158066,-0.9521 -0.160053,-1.30734 -0.0035,-0.62259 -0.01715,-0.62737 -0.378926,-0.13261 -0.358818,0.49071 -0.383636,0.4784 -0.564702,-0.28016 -0.104165,-0.43638 -0.334762,-0.97202 -0.512438,-1.1903 -0.177677,-0.21828 -0.542393,-1.02196 -0.810481,-1.78594 -0.268088,-0.76398 -0.628285,-1.38906 -0.800436,-1.38906 -0.793067,0 -0.745431,-9.15379 0.05108,-9.81483 0.201553,-0.16727 0.374828,-0.55745 0.385056,-0.86705 0.0177,-0.53582 0.02833,-0.53804 0.220758,-0.0461 0.17119,0.43761 0.229144,0.38187 0.378279,-0.36381 0.09686,-0.48432 0.176117,-1.40148 0.176117,-2.03813 0,-0.63666 0.0893,-1.15856 0.198437,-1.15979 0.109141,-10e-4 0.226027,-0.67374 0.259748,-1.49447 0.06605,-1.60769 0.232321,-2.00887 0.591621,-1.42751 0.1542,0.2495 0.282511,-0.0507 0.399033,-0.9337 0.321905,-2.439291 0.684168,-2.513021 0.544592,-0.11083 l -0.130672,2.24895 0.400892,-1.19062 c 0.220491,-0.65484 0.350555,-1.62165 0.289032,-2.148451 -0.08654,-0.74098 -0.02023,-0.95063 0.292897,-0.92604 0.25262,0.0198 0.548061,-0.39088 0.786012,-1.0927 0.212138,-0.62568 0.550226,-1.12448 0.762181,-1.12448 0.319556,0 0.312474,0.10447 -0.04395,0.64845 -0.233684,0.35665 -0.368111,0.86266 -0.298727,1.12448 0.109714,0.414 0.151065,0.39846 0.317347,-0.11928 0.105158,-0.32742 0.341458,-0.59531 0.525113,-0.59531 0.183654,0 0.483158,-0.3603 0.665564,-0.80067 0.36055,-0.87045 2.557407,-2.97343 3.750869,-3.59059 0.409299,-0.211657 0.744179,-0.573467 0.744179,-0.804017 0,-0.50406 1.58326,-3.53597 1.84648,-3.53597 0.10189,0 0.32393,0.30437 0.49343,0.67637 0.1695,0.37201 0.40879,0.6142 0.53176,0.5382 0.12297,-0.076 0.38976,0.17234 0.59288,0.55186 0.31943,0.59687 2.05017,1.93773 2.50115,1.93773 0.0855,0 0.0798,-0.23812 -0.0126,-0.52916 -0.25515,-0.80391 0.22186,-0.63296 0.92286,0.33073 0.34402,0.47294 0.78835,0.958017 0.9874,1.077967 0.20053,0.12084 0.29472,0.42971 0.21124,0.69274 -0.15858,0.49962 0.81351,1.33814 1.55129,1.33814 0.21126,0 0.6284,0.32742 0.92697,0.7276 l 0.54285,0.72761 0.008,-1.32562 c 0.007,-1.04019 0.15081,-1.47922 0.66984,-2.03898 0.3638,-0.39234 0.66411,-0.926897 0.66734,-1.187917 0.003,-0.26101 0.23872,-0.77222 0.52329,-1.13602 0.28457,-0.36381 0.52004,-0.80723 0.52328,-0.9854 0.003,-0.17816 0.34864,-0.50118 0.76757,-0.71782 0.41893,-0.21663 0.83191,-0.57688 0.91774,-0.80054 0.26478,-0.69002 0.54819,-0.46963 1.7534,1.36349 0.64009,0.97359 1.20863,1.63569 1.26341,1.47134 0.0548,-0.16434 -0.0977,-0.59991 -0.33882,-0.96792 -0.24113,-0.36801 -0.38653,-0.82176 -0.32311,-1.00832 0.0634,-0.18657 0.53931,0.31563 1.05754,1.116 1.28498,1.98452 3.39682,4.299747 3.19776,3.505727 -0.0821,-0.32742 -0.0428,-0.59531 0.0872,-0.59531 0.34615,0 1.9419,1.50968 1.9419,1.83716 0,0.15373 0.1786,0.2795 0.39688,0.2795 0.22718,0 0.40842,0.25454 0.42388,0.59532 0.022,0.48394 0.0775,0.43828 0.296977,-0.24408 0.14848,-0.46167 0.68781,-1.23557 1.1985,-1.71979 l 0.92854,-0.88041 -0.16592,0.70251 c -0.14815,0.62724 -0.10228,0.68631 0.42813,0.55136 1.72388,-0.43859 3.28485,-2.068387 3.13721,-3.275547 -0.0299,-0.24434 0.34165,-0.67815 0.84977,-0.99219 1.07727,-0.66578 1.54485,-0.71329 1.3227,-0.13439 -0.14905,0.38843 -0.0945,0.38843 0.65663,0 1.22679,-0.6344 1.59103,-0.5416 1.71239,0.43629 l 0.10671,0.85989 0.0433,-0.92604 0.0433,-0.92604 0.52429,0.85989 c 0.28836,0.47295 0.62989,0.8599 0.75895,0.8599 0.12906,0 0.30773,0.44648 0.39705,0.99219 0.0893,0.545697 0.39662,1.587497 0.6829,2.315097 l 0.5205,1.32292 0.0124,-0.99219 c 0.007,-0.5457 0.13144,-0.99219 0.27696,-0.99219 0.14552,0 0.26531,0.14883 0.26621,0.33073 0.004,0.75904 0.85714,-1.37406 1.10357,-2.758387 0.24748,-1.39024 0.31819,-1.49819 0.9533,-1.45521 0.56211,0.038 0.73178,-0.10888 0.93952,-0.81348 0.35119,-1.19113 0.82662,-1.0754 1.54748,0.37667 0.57149,1.1512 0.61965,1.18773 0.69759,0.52917 0.1021,-0.86265 0.47735,-0.92086 0.72261,-0.11209 0.28128,0.92751 1.23157,1.86287 1.48159,1.45831 0.14687,-0.23763 0.574,0.0292 1.48819,0.92964 0.70522,0.694607 1.34457,1.200577 1.42078,1.124357 0.18623,-0.18623 2.959,3.5011 3.64735,4.85037 0.59912,1.17437 0.74002,2.304121 0.24956,2.001001 -0.17818,-0.11012 -0.25165,-0.043 -0.1819,0.16629 0.23887,0.71661 0.7454,0.56234 0.7454,-0.22701 0,-0.43312 0.16008,-0.848921 0.35574,-0.924001 0.19566,-0.0751 0.50965,-0.6862 0.69775,-1.35804 0.29009,-1.0361 0.69371,-1.72092 0.83807,-1.42195 0.0217,0.045 0.11895,1.74863 0.21607,3.785921 l 0.1766,3.70417 0.0485,-3.24114 c 0.0528,-3.528991 0.50452,-4.474181 0.63223,-1.322921 0.0606,1.494151 0.16547,1.918231 0.47461,1.918231 0.2914,0 0.47489,0.52735 0.69044,1.98437 0.16146,1.09141 0.31029,1.60445 0.33073,1.1401 0.0447,-1.01458 0.56633,-1.46986 0.56633,-0.49425 0,0.37239 0.11906,0.67707 0.26458,0.67707 0.14552,0 0.26459,-0.11906 0.26459,-0.26458 0,-0.14552 0.11906,-0.26459 0.26458,-0.26459 0.14552,0 0.26458,0.2311 0.26458,0.51355 0,0.28246 0.10796,0.58028 0.23991,0.66183 0.13195,0.0815 0.18959,-0.0603 0.12809,-0.31512 -0.0615,-0.25486 -0.001,-0.82057 0.13423,-1.25713 0.17588,-0.56741 0.25252,-0.64078 0.26878,-0.25731 0.0125,0.29504 0.18624,0.77129 0.38608,1.05833 0.51148,0.73469 1.05101,4.21606 0.86439,5.5776 -0.12835,0.93638 -0.0865,1.11358 0.23402,0.99059 0.33105,-0.12704 0.38794,0.32668 0.37456,2.98738 -0.009,1.72544 -0.13434,3.73247 -0.27927,4.46008 -0.14492,0.7276 -0.32957,1.71097 -0.41033,2.18526 -0.24754,1.45371 -0.61538,1.2387 -0.65645,-0.38371 -0.0256,-1.00952 -0.11538,-0.49278 -0.26171,1.50574 -0.12254,1.67349 -0.16456,3.40092 -0.0934,3.83873 0.27317,1.6801 0.1854,10.23404 -0.10802,10.52746 -0.16045,0.16045 -0.29173,0.80128 -0.29173,1.42408 0,0.62279 -0.19446,1.61836 -0.43214,2.21238 -0.34129,0.85296 -0.38507,1.42426 -0.20826,2.71733 0.24114,1.76351 0.22122,8.06744 -0.0313,9.90554 -0.085,0.61846 -0.28082,1.12448 -0.43522,1.12448 -0.1868,0 -0.23843,-0.81888 -0.15431,-2.4474 0.0982,-1.90172 0.0177,-2.80135 -0.3611,-4.03489 -0.26813,-0.87313 -0.48906,-2.18877 -0.49093,-2.92365 -0.002,-0.73488 -0.13095,-1.46368 -0.28682,-1.61955 -0.20149,-0.20149 -0.20149,-0.87239 0,-2.32102 0.15587,-1.12069 0.29095,-2.17783 0.30017,-2.3492 0.009,-0.17137 0.11044,-0.0735 0.22493,0.21758 0.11448,0.29104 0.21798,1.52326 0.22999,2.73826 0.012,1.215 0.0894,2.27664 0.17195,2.3592 0.0826,0.0826 0.15011,-1.36504 0.15011,-3.21689 0,-1.85185 0.0978,-3.30655 0.21739,-3.23265 0.24325,0.15033 1.10553,-0.75793 1.10553,-1.16448 0,-0.45722 -0.65389,-0.2817 -0.99693,0.2676 -0.56521,0.90505 -0.88943,0.61146 -0.80351,-0.7276 0.0534,-0.83212 0.1924,-1.23442 0.41138,-1.19063 0.1819,0.0364 0.33073,-0.16824 0.33073,-0.45471 0,-0.33139 0.13137,-0.47045 0.36114,-0.38228 0.49367,0.18944 0.712,-3.27157 0.338,-5.35796 -0.42761,-2.38545 -0.30333,-5.94636 0.21771,-6.23795 0.31881,-0.17841 0.38119,-0.46133 0.25272,-1.14613 -0.11789,-0.62844 -0.0388,-1.11028 0.25597,-1.56022 0.2346,-0.35804 0.42654,-0.9458 0.42654,-1.30613 0,-0.36034 0.10368,-0.71924 0.23041,-0.79756 0.12672,-0.0783 0.30487,-0.51471 0.39588,-0.96976 0.19611,-0.98056 -0.0836,-3.72114 -0.36225,-3.54894 -0.25696,0.15881 -0.51915,-1.84214 -0.56827,-4.33674 -0.0218,-1.10748 -0.0892,-1.68617 -0.14986,-1.28599 -0.13039,0.86068 -0.49803,0.94991 -0.74233,0.18018 -0.16606,-0.52321 -0.18943,-0.52613 -0.5281,-0.0661 -0.33984,0.46156 -0.36268,0.4596 -0.55762,-0.0479 -0.1118,-0.29104 -0.48218,-0.74985 -0.82307,-1.01958 -0.34089,-0.26974 -0.78399,-0.86505 -0.98467,-1.32292 l -0.36487,-0.8325 -0.0216,1.25678 c -0.0119,0.69122 0.0975,1.25677 0.243,1.25677 0.41555,0 0.3154,6.17266 -0.1438,8.86354 -0.23011,1.34838 -0.47629,4.99212 -0.56756,8.40052 -0.0887,3.3106 -0.26253,6.01927 -0.38638,6.01927 -0.12385,0 -0.23823,-0.20836 -0.25417,-0.46302 -0.0159,-0.25466 -0.13176,0.0728 -0.25737,0.7276 -0.39983,2.08446 -0.50539,2.36539 -0.84082,2.23763 -0.70972,-0.27033 -2.59208,4.28618 -2.56894,6.21848 0.008,0.63521 0.0242,0.64303 0.30374,0.14285 0.41518,-0.74302 1.28024,-1.53887 1.46828,-1.35083 0.0867,0.0867 0.005,0.66419 -0.18191,1.28337 -0.18671,0.61919 -0.48378,1.60205 -0.66014,2.18413 -0.17636,0.58208 -0.48343,1.05833 -0.68237,1.05833 -0.20378,0 -0.53822,0.57765 -0.76593,1.32292 -0.22232,0.7276 -0.49611,1.3626 -0.60843,1.41111 -0.11231,0.0485 -0.2042,0.30789 -0.2042,0.57641 0,0.26852 -0.15979,0.64801 -0.35509,0.84331 -0.57383,0.57383 -0.96783,1.45203 -0.96783,2.15722 0,0.82576 -0.2494,1.49424 -0.55748,1.49424 -0.12995,0 -0.23627,-0.17859 -0.23627,-0.39687 0,-0.21829 -0.11906,-0.39688 -0.26458,-0.39688 -0.14553,0 -0.26459,0.17859 -0.26459,0.39688 0,0.21905 -0.23455,0.39687 -0.52349,0.39687 -0.46002,0 -0.48756,-0.0789 -0.22712,-0.65047 0.44382,-0.97408 -0.15865,-2.97624 -0.8796,-2.92313 -0.29082,0.0214 -0.63183,0.20572 -0.75781,0.40955 -0.4792,0.77538 -0.60834,-0.0748 -0.1427,-0.93945 0.38425,-0.7135 0.45241,-1.21717 0.31869,-2.35492 -0.10239,-0.87118 -0.0646,-1.5125 0.0949,-1.6111 0.1577,-0.0975 0.26503,0.21123 0.26503,0.76225 0,0.50932 0.11159,0.99501 0.24798,1.0793 0.1469,0.0908 0.28171,-1.06215 0.33073,-2.82865 0.0815,-2.93883 -0.18447,-4.55912 -0.81223,-4.9471 -0.1703,-0.10525 -0.36567,-0.7777 -0.43416,-1.49434 -0.0685,-0.71664 -0.24976,-2.61267 -0.40283,-4.2134 -0.16058,-1.6793 -0.55411,-3.739 -0.93033,-4.86922 -0.35862,-1.07735 -0.59425,-2.01659 -0.52362,-2.08722 0.0706,-0.0706 0.25268,0.21553 0.40457,0.63589 0.60203,1.6661 0.66449,1.63122 0.63186,-0.35287 -0.0352,-2.14208 -0.74555,-4.56029 -1.20466,-4.10118 -0.13209,0.13209 -0.26488,3.26811 -0.29509,6.96894 -0.0529,6.47526 -0.0763,6.75173 -0.62232,7.33766 -0.35855,0.38477 -0.6321,0.50416 -0.74322,0.32438 -0.0967,-0.15648 -0.10508,-0.2845 -0.0186,-0.2845 0.0865,0 0.004,-0.26789 -0.18282,-0.59532 -0.29818,-0.52201 -0.36148,-0.23696 -0.51416,2.31511 -0.21037,3.51622 -0.83711,8.77234 -1.07431,9.00953 -0.45522,0.45523 -0.73873,-0.3631 -0.76637,-2.21212 -0.0268,-1.79201 -0.0566,-1.90858 -0.24934,-0.97658 -0.1204,0.58209 -0.22577,1.74295 -0.23416,2.57969 -0.0151,1.50314 -0.51839,2.20127 -0.57226,0.79375 -0.0153,-0.40018 -0.1671,0.18816 -0.3373,1.30744 -0.32307,2.12462 -0.57423,2.68658 -0.9378,2.09831 -0.14604,-0.23631 -0.2736,-0.0413 -0.39448,0.60297 -0.25713,1.37065 -0.76638,1.21898 -0.5784,-0.17226 l 0.15194,-1.12448 -0.44223,0.92604 c -0.24701,0.51725 -0.49138,1.83123 -0.55357,2.97656 -0.10673,1.96556 -0.43733,2.70855 -0.64751,1.45521 -0.0549,-0.32742 -0.1962,0.44489 -0.31398,1.71625 -0.11778,1.27136 -0.30385,2.25613 -0.41348,2.18837 -0.10963,-0.0677 -0.35933,-0.84442 -0.55489,-1.72593 -0.27543,-1.24153 -0.40049,-1.4813 -0.5549,-1.06389 -0.21357,0.57733 -0.74555,0.74156 -0.74555,0.23017 0,-0.16978 -0.0756,-0.23313 -0.16791,-0.14078 -0.0923,0.0923 -0.015,0.53695 0.17179,0.988 0.24654,0.5952 0.40031,0.72449 0.56073,0.4715 0.14954,-0.23583 0.22235,-0.11323 0.22509,0.37902 0.002,0.40018 -0.10145,0.7276 -0.23039,0.7276 -0.27689,0 -1.08848,-1.62957 -1.08848,-2.18555 0,-0.21218 -0.36108,-1.06245 -0.80241,-1.88948 -0.44133,-0.82704 -0.74168,-1.60199 -0.66743,-1.72211 0.16663,-0.26962 -0.74226,-2.57757 -2.23126,-5.66589 -0.92167,-1.91162 -1.10051,-2.52319 -0.98646,-3.37344 0.0998,-0.74406 0.0424,-1.03853 -0.20236,-1.03853 -0.20478,0 -0.41709,0.50351 -0.52993,1.25678 -0.10355,0.69122 -0.29493,1.32287 -0.42528,1.40366 -0.13036,0.0808 -0.34338,0.71625 -0.473377,1.41213 -0.25923,1.38758 -0.50287,1.74842 -1.25368,1.85671 -0.39151,0.0565 -0.51479,0.33461 -0.57824,1.30458 -0.0773,1.18197 -0.38832,1.60059 -0.67017,0.90208 -0.0734,-0.1819 -0.14285,-0.0628 -0.15434,0.26459 -0.0115,0.32742 -0.12273,0.59531 -0.2472,0.59531 -0.12447,0 -0.33591,0.38695 -0.46986,0.85989 -0.13508,0.47694 -0.50563,0.97622 -0.83202,1.12108 -0.32366,0.14365 -0.58848,0.48099 -0.58848,0.74965 0,0.26866 -0.14554,0.43996 -0.32343,0.38066 -0.41009,-0.13669 -0.67477,-1.07657 -0.70853,-2.51597 -0.0145,-0.61846 -0.14403,-1.12448 -0.28783,-1.12448 -0.1438,0 -0.34233,-0.50574 -0.44117,-1.12388 -0.0988,-0.61813 -0.22923,-0.97532 -0.28976,-0.79375 -0.25799,0.77398 -0.5396,0.2183 -0.64786,-1.27839 -0.064,-0.88469 -0.23367,-1.68836 -0.37705,-1.78594 -0.14339,-0.0976 -0.53099,-1.48185 -0.86134,-3.07616 -0.33035,-1.5943 -0.73741,-3.14212 -0.90459,-3.43958 -0.16717,-0.29746 -0.50998,-1.31475 -0.7618,-2.26063 -1.17138,-4.40003 -1.55948,-5.66937 -1.77514,-5.80587 -0.12797,-0.081 -0.37853,-0.86163 -0.5568,-1.73476 -0.39275,-1.92361 -0.77602,-2.728 -0.7879,-1.65364 -0.004,0.40018 -0.14098,0.7276 -0.30345,0.7276 -0.20395,0 -0.24325,0.51199 -0.12695,1.65365 0.0927,0.9095 0.22326,4.48138 0.29025,7.9375 0.1006,5.1901 0.059,6.28385 -0.23906,6.28385 -0.37418,0 -0.67729,-0.77758 -0.68356,-1.75354 -0.002,-0.3096 -0.1822,-0.71114 -0.40049,-0.89229 -0.32115,-0.26654 -0.39687,-0.25754 -0.39687,0.0471 0,0.53566 -0.61936,1.80042 -0.88288,1.80288 -0.12178,0.001 -0.35624,-0.35513 -0.52103,-0.79169 -0.16478,-0.43656 -0.42311,-0.79375 -0.57405,-0.79375 -0.25025,0 -0.93246,-1.73831 -0.93246,-2.37596 0,-0.23614 -0.79949,-2.03334 -2.4152,-5.42925 -0.27695,-0.58208 -0.92216,-1.77271 -1.43382,-2.64583 -1.82952,-3.12203 -3.315486,-6.78405 -2.81986,-6.94926 0.53988,-0.17996 0.3564,-1.98379 -0.493995,-4.85668 -1.390203,-4.69651 -1.573207,-5.35326 -1.871134,-6.71489 -0.1592,-0.72761 -0.365883,-2.89757 -0.459296,-4.82213 -0.136702,-2.81645 -0.259614,-3.58898 -0.629933,-3.9593 -0.437067,-0.43707 -0.460092,-0.43077 -0.460092,0.12577 0,0.7554 -0.466076,0.76451 -0.576911,0.0113 -0.151171,-1.02736 -0.660061,-0.79663 -1.245736,0.56481 -0.315322,0.73298 -0.689066,1.3327 -0.830541,1.3327 -0.141476,0 -0.257229,0.24196 -0.257229,0.53769 0,0.50487 -0.957815,1.12394 -1.367739,0.88402 -0.58427,-0.34197 -1.383912,4.76588 -1.382491,8.83089 6.74e-4,1.92816 -0.09462,3.50573 -0.211772,3.50573 -0.117149,0 -0.212998,-0.66187 -0.212998,-1.47082 0,-0.99891 -0.09302,-1.41333 -0.289934,-1.29163 -0.322664,0.19941 -0.08617,2.43423 0.308392,2.91426 0.128435,0.15625 0.223618,0.69203 0.211517,1.19062 -0.0121,0.49859 0.170928,1.35302 0.40673,1.89872 0.450483,1.04253 0.841619,1.36948 0.55392,0.46302 -0.09635,-0.30356 -0.04754,-0.52917 0.114462,-0.52917 0.155328,0 0.282413,0.14073 0.282413,0.31272 0,0.47983 1.949085,3.64593 2.248959,3.65322 0.527348,0.0128 1.496683,1.79616 1.392223,2.56135 l -0.102214,0.74876 -0.275646,-0.65391 c -0.274655,-0.65156 -0.276101,-0.6508 -0.402707,0.21182 -0.103418,0.70463 0.0073,0.97882 0.595162,1.47344 0.397224,0.33425 0.929268,1.01283 1.182322,1.50797 0.253053,0.49514 0.707841,1.25227 1.010638,1.68251 l 0.550542,0.78226 0.181278,-0.64997 c 0.157675,-0.56533 0.184713,-0.52876 0.207653,0.28081 0.02405,0.84862 0.876813,2.45568 1.797597,3.38761 0.46032,0.4659 0.4359,0.19589 -0.0709,-0.78423 -0.583709,-1.12877 -0.290153,-1.23776 0.3862,-0.1434 0.53587,0.86705 0.77522,2.56489 0.36091,2.56006 -0.10914,-0.001 -0.65803,-0.71564 -1.219749,-1.5875 -0.561723,-0.87185 -1.053114,-1.58518 -1.091979,-1.58518 -0.283353,0 0.304315,2.57939 0.660953,2.90105 0.69302,0.62505 1.280085,2.56979 1.480435,4.90416 0.0999,1.16416 0.26006,2.17619 0.35587,2.24895 0.24662,0.18729 1.0029,3.9537 1.32679,6.60765 0.33736,2.76426 0.33783,2.91735 0.009,2.91735 -0.14552,0 -0.26459,-0.29062 -0.26459,-0.64584 0,-0.35521 -0.11906,-0.71943 -0.26458,-0.80936 -0.14784,-0.0914 -0.26458,0.11196 -0.26458,0.4608 0,0.7096 -0.56104,2.04756 -0.8599,2.05067 -0.10914,10e-4 -0.19844,0.29972 -0.19844,0.66353 0,1.05761 -0.47499,0.7643 -0.749841,-0.46302 -0.138501,-0.61847 -0.26457,-0.88041 -0.280154,-0.58209 -0.01558,0.29832 -0.155382,0.66944 -0.310662,0.82472 -0.155279,0.15528 -0.350798,1.18769 -0.434487,2.29425 -0.15293,2.02209 -0.602589,2.57834 -0.610154,0.75479 -0.003,-0.72793 -0.06935,-0.87552 -0.260532,-0.5797 -0.141064,0.21829 -0.258304,0.65627 -0.260532,0.97329 -0.0022,0.31703 -0.17404,0.74641 -0.381805,0.95417 -0.207764,0.20776 -0.459139,0.81158 -0.558612,1.34182 -0.196327,1.04651 -0.651134,1.31947 -0.651134,0.39079 0,-0.31529 -0.06901,-0.50425 -0.153363,-0.4199 -0.08435,0.0844 -0.204995,1.43336 -0.268102,2.99779 -0.06311,1.56444 -0.228525,2.98153 -0.367595,3.1491 -0.437907,0.52765 0.107717,2.88416 0.911923,3.93852 0.409573,0.53698 0.65458,1.06238 0.544459,1.16756 -0.11012,0.10518 -0.335082,-0.0272 -0.499916,-0.29415 -0.164834,-0.26697 -0.508057,-0.73167 -0.762719,-1.03267 -0.453619,-0.53617 -0.463021,-0.52342 -0.463021,0.62788 0,0.6528 0.235217,1.63653 0.529167,2.2131 0.579227,1.13612 0.670947,1.71979 0.270256,1.71979 -0.157501,0 -0.140866,0.25908 0.04247,0.66146 0.358852,0.78759 0.866568,0.888 0.668946,0.13229 -0.07611,-0.29104 -0.04372,-0.52917 0.07199,-0.52917 0.237825,0 0.388017,0.74753 0.797397,3.96875 0.383847,3.02032 0.537067,3.30655 0.920615,1.71979 0.378096,-1.5642 0.402664,-1.51695 1.375805,2.64584 0.537265,2.29825 0.765825,2.93754 0.827675,2.3151 0.13251,-1.33336 0.96164,-1.16531 1.30548,0.26458 l 0.2704,1.12448 0.0318,-1.00958 c 0.0175,-0.55527 0.1591,-1.24749 0.31472,-1.53826 0.20673,-0.38628 0.19657,-0.63276 -0.0377,-0.91505 -0.17635,-0.21249 -0.236,-0.47099 -0.13255,-0.57444 0.10345,-0.10345 0.40103,0.0942 0.6613,0.43926 0.35728,0.47366 0.52521,0.54322 0.68546,0.28392 0.23419,-0.37892 -0.73172,-1.31605 -1.35647,-1.31605 -0.20216,0 -0.36756,-0.18958 -0.36756,-0.42129 0,-0.23171 -0.23813,-0.72402 -0.52917,-1.09402 -0.29104,-0.37 -0.52916,-0.54463 -0.52916,-0.38807 0,0.15655 0.11906,0.35823 0.26458,0.44817 0.34548,0.21351 0.34104,0.66146 -0.007,0.66146 -0.14912,0 -0.39454,-0.32743 -0.54538,-0.72761 -0.15084,-0.40018 -0.44555,-1.07332 -0.654913,-1.49586 -0.209362,-0.42254 -0.380657,-0.89111 -0.380657,-1.04128 0,-0.15016 -0.258438,-0.54812 -0.574307,-0.88435 -0.315869,-0.33622 -0.507091,-0.67853 -0.424937,-0.76069 0.236369,-0.23637 1.614554,1.24566 2.105324,2.26395 0.24547,0.50932 0.69233,1.2237 0.99303,1.5875 l 0.54672,0.66146 0.52329,-0.66146 c 0.2878,-0.3638 0.52593,-0.92232 0.52916,-1.24115 0.003,-0.31884 0.13689,-0.66067 0.29701,-0.75963 0.19961,-0.12336 0.26199,0.18361 0.19844,0.97658 -0.11823,1.47522 0.33065,1.60628 0.78926,0.23045 0.19402,-0.58208 0.46191,-1.05833 0.59531,-1.05833 0.13339,0 0.24253,-0.2282 0.24253,-0.50712 0,-0.27891 0.13266,-0.55133 0.29479,-0.60538 0.16213,-0.054 0.25142,-0.31846 0.19843,-0.5876 -0.0846,-0.42953 -0.20588,-0.38692 -0.99255,0.34858 -0.49292,0.46086 -0.9422,0.79193 -0.99842,0.73571 -0.24119,-0.24119 0.25249,-0.8823 1.10669,-1.43714 0.50612,-0.32876 0.92023,-0.79734 0.92023,-1.04129 0,-0.24394 0.24788,-0.70739 0.55086,-1.02989 0.6012,-0.63995 1.08528,-2.97985 0.54774,-2.64763 -0.41103,0.25403 -0.38406,-0.24704 0.0677,-1.25805 0.5656,-1.26569 1.42958,-5.12282 1.573,-7.0224 0.0702,-0.92991 0.27275,-1.78042 0.45009,-1.89003 0.43276,-0.26745 0.66623,-2.77667 0.28054,-3.01504 -0.3808,-0.23535 -0.41002,-6.23647 -0.0304,-6.23647 0.14552,0 0.27867,0.26789 0.29589,0.59531 0.025,0.47528 0.065,0.43967 0.19844,-0.17661 0.0919,-0.42456 0.30586,-0.81806 0.47541,-0.87446 0.5408,-0.17988 0.72742,1.02493 0.7263,4.68909 -7.1e-4,2.32111 0.0496,2.96965 0.14363,1.85208 0.15531,-1.84573 0.63904,-2.28902 1.22196,-1.11979 0.16452,0.33 0.39119,0.68719 0.50371,0.79375 0.33523,0.31751 -0.15875,-1.09515 -0.53364,-1.52604 -0.33392,-0.38381 -1.17961,-3.55918 -1.17961,-4.42917 0,-0.25652 0.31462,-0.0118 0.78639,0.61173 0.43251,0.57162 0.7897,1.25343 0.79375,1.51512 0.008,0.49592 0.13477,0.76773 2.35662,5.03972 1.29408,2.48815 1.64031,3.6126 1.11237,3.6126 -0.1334,0 -0.3127,-0.14883 -0.39846,-0.33073 -0.0858,-0.1819 -0.0744,0.0265 0.0253,0.46302 0.0997,0.43657 0.2058,1.32953 0.23581,1.98438 0.0604,1.3191 0.16971,2.05457 0.76659,5.15937 0.22381,1.16417 0.40694,2.50362 0.40697,2.97657 5e-5,0.96047 0.18184,1.07425 0.66365,0.41533 0.29732,-0.40661 0.35252,-0.39325 0.64671,0.15644 0.1769,0.33054 0.38921,1.49446 0.4718,2.58648 l 0.15017,1.98548 0.45795,-1.01744 c 0.25188,-0.55959 0.54487,-1.3151 0.6511,-1.6789 0.1579,-0.54078 0.12979,-0.60112 -0.1541,-0.33073 -0.56505,0.53819 -0.81232,0.37759 -0.40734,-0.26458 0.20648,-0.32742 0.457,-0.89297 0.55672,-1.25677 0.46283,-1.68863 1.03584,-2.91042 1.36495,-2.91042 0.22304,0 0.36093,-0.29729 0.36093,-0.77813 0,-0.42798 0.11907,-0.85172 0.26459,-0.94166 0.14552,-0.0899 0.26458,-0.0374 0.26458,0.11668 0,1.546 1.72114,-3.55928 1.91251,-5.67293 0.0519,-0.57293 0.20932,-0.79375 0.56597,-0.79375 0.340153,0 0.639393,-0.37099 0.960363,-1.19063 0.25644,-0.65484 0.62589,-1.19062 0.821,-1.19062 0.49237,0 1.09896,-1.2502 0.72017,-1.4843 -0.19105,-0.11807 -0.12079,-0.40411 0.21109,-0.85938 0.45196,-0.62001 1.12374,-1.01971 0.78055,-0.46442 -0.0797,0.12903 0.0323,0.38173 0.24897,0.56156 0.21668,0.17983 0.39396,0.54348 0.39396,0.80811 0,0.26464 0.11907,0.55474 0.26459,0.64468 0.14552,0.0899 0.26458,0.44712 0.26458,0.79375 0,0.34663 0.11906,0.70381 0.26458,0.79375 0.14552,0.0899 0.26459,0.50666 0.26459,0.92604 0,0.41939 0.13267,0.84452 0.29482,0.94473 0.1776,0.10977 0.23916,0.59716 0.15483,1.2259 -0.11107,0.82805 -0.0626,1.01401 0.23434,0.90004 0.27677,-0.1062 0.37434,0.0871 0.37434,0.74178 0,1.03778 0.58852,2.56702 1.17534,3.05403 0.22669,0.18814 0.41216,0.73306 0.41216,1.21094 0,0.71487 0.0867,0.84621 0.48908,0.74098 0.39201,-0.10252 0.55542,0.10907 0.82339,1.06617 0.18388,0.65674 0.48624,1.25237 0.67192,1.32362 0.18568,0.0712 0.64934,1.12067 1.03036,2.33203 0.38102,1.21137 0.79542,2.36279 0.9209,2.55872 0.32964,0.51471 0.82685,-1.05117 0.82685,-2.60402 0,-1.36933 0.63097,-2.91158 1.19119,-2.91158 0.23624,0 0.34545,-0.29355 0.3199,-0.8599 -0.0213,-0.47294 0.0561,-1.24673 0.17207,-1.71953 0.18418,-0.7509 0.15281,-0.83737 -0.24804,-0.68355 -0.41867,0.16066 -0.44248,0.0157 -0.27171,-1.6539 0.10295,-1.0065 0.31256,-1.94906 0.4658,-2.09458 0.26653,-0.2531 0.21012,0.29095 -0.22632,2.18281 -0.0803,0.34798 -0.0128,0.59531 0.16254,0.59531 0.16494,0 0.37181,-0.35966 0.45973,-0.79925 0.0879,-0.43959 0.26354,-0.86334 0.39026,-0.94166 0.12673,-0.0783 0.23041,-0.73069 0.23041,-1.4497 0,-0.71902 0.11907,-1.30731 0.26459,-1.30731 0.14552,0 0.26458,0.2311 0.26458,0.51356 0,0.79701 0.41891,0.86493 0.75707,0.12275 0.1679,-0.36851 0.19354,-0.60096 0.057,-0.51655 -0.97097,0.60009 -0.31844,-3.25846 0.94758,-5.60322 0.86132,-1.59523 1.93136,-5.02939 1.93942,-6.22435 0.002,-0.25466 0.12219,-0.46302 0.26771,-0.46302 0.14552,0 0.26641,0.20836 0.26863,0.46302 0.003,0.36069 0.0543,0.38369 0.23151,0.10405 0.39518,-0.62367 0.62657,0.14796 0.73326,2.44519 0.27371,5.89335 0.43451,7.83566 0.64869,7.83566 0.12902,0 0.23458,-0.60234 0.23458,-1.33853 0,-2.54749 0.44785,-1.04953 0.61419,2.05432 0.0932,1.73863 0.28676,3.1564 0.43787,3.20677 0.14897,0.0497 0.28301,0.40779 0.29786,0.79584 0.026,0.67956 0.0372,0.67387 0.30286,-0.15434 0.48103,-1.49951 0.72847,-0.93782 0.72847,1.65365 0,2.28251 0.0457,2.51354 0.49677,2.51354 0.27322,0 0.6165,0.14883 0.76284,0.33073 0.46833,0.58213 0.86782,3.04608 0.60567,3.7356 -0.26408,0.69457 -0.0936,1.7545 0.28224,1.7545 0.12855,0 0.24559,0.26789 0.2601,0.59531 l 0.0264,0.59532 0.17207,-0.61093 c 0.3252,-1.15465 0.70145,-0.7095 0.85181,1.0078 0.0828,0.94589 0.29118,1.97986 0.46302,2.29771 0.17184,0.31786 0.31244,0.94294 0.31244,1.38906 0,0.65036 0.11132,0.81115 0.56156,0.81115 0.46917,0 0.50737,-0.0653 0.23219,-0.39688 -0.22757,-0.2742 -0.23758,-0.39687 -0.0324,-0.39687 0.16334,0 0.30539,-0.20836 0.31567,-0.46302 0.0103,-0.25466 0.23949,0.0335 0.50935,0.64033 0.41264,0.92793 0.59897,1.09147 1.17193,1.02858 0.43523,-0.0478 0.68128,0.0554 0.68128,0.2857 0,0.19827 0.18608,0.36049 0.41351,0.36049 0.23537,0 0.39321,-0.19947 0.36641,-0.46302 -0.098,-0.96307 0.0215,-2.18281 0.21383,-2.18281 0.11,0 0.35845,0.35797 0.55212,0.7955 0.48394,1.09331 0.30975,4.36387 -0.23244,4.36387 -0.24366,0 -0.41815,-0.31904 -0.4703,-0.85989 -0.1175,-1.21866 -0.84313,-1.16173 -0.84313,0.0661 0,0.50933 0.11906,0.92605 0.26459,0.92605 0.14552,0 0.26458,0.1266 0.26458,0.28134 0,0.15804 -0.37689,0.24501 -0.8599,0.19844 -0.75788,-0.0731 -0.87559,-0.19167 -0.99218,-0.99967 l -0.1323,-0.91676 -0.46302,0.70901 c -0.25466,0.38996 -0.46484,0.9811 -0.46707,1.31364 -0.003,0.44001 -0.066,0.50689 -0.23151,0.24564 -0.15856,-0.25024 -0.28228,-0.27028 -0.40844,-0.0661 -0.29272,0.47363 -0.63352,0.3374 -0.75677,-0.30248 l -0.11466,-0.59532 -0.036,0.59532 c -0.0345,0.57016 -0.82978,0.88714 -0.82978,0.33073 0,-0.14553 -0.11906,-0.26459 -0.26458,-0.26459 -0.14552,0 -0.26458,0.40822 -0.26458,0.90715 0,0.49892 -0.1786,1.08573 -0.39688,1.30401 -0.85711,0.85712 -0.49439,1.12617 1.38906,1.03038 2.58705,-0.13158 2.86514,-0.23087 3.45719,-1.2343 0.29424,-0.49872 1.14608,-1.36272 1.89297,-1.92002 l 1.35798,-1.01326 -0.17194,-1.71979 c -0.0946,-0.94589 -0.26668,-2.16628 -0.38246,-2.71198 -0.11578,-0.5457 -0.11684,-0.99219 -0.002,-0.99219 0.28714,0 0.52856,0.69835 0.5334,1.543 0.002,0.38828 0.11147,0.87568 0.24275,1.08312 0.15013,0.23721 0.20913,-0.40093 0.15901,-1.71979 -0.0562,-1.47865 -0.0302,-1.71294 0.088,-0.79458 0.0922,0.71631 0.29957,1.34566 0.46079,1.39857 0.3728,0.12236 0.65309,-2.41772 0.6265,-5.67751 -0.0134,-1.63835 0.0778,-2.44739 0.27564,-2.44739 0.17858,0 0.22676,0.21693 0.12169,0.54797 -0.21471,0.67649 0.11176,3.68536 0.39987,3.68536 0.28517,0 0.48373,-1.85077 0.2163,-2.01605 -0.11733,-0.0725 -0.19952,-0.5713 -0.18264,-1.10842 0.0169,-0.53711 0.0831,-0.73844 0.14714,-0.4474 0.22643,1.02902 0.68353,1.98437 0.94946,1.98437 0.26139,0 0.2217,-0.65588 -0.2307,-3.81165 -0.13678,-0.95407 -0.10494,-1.24796 0.12012,-1.10887 0.2217,0.13702 0.32028,-0.45396 0.35719,-2.14147 0.0449,-2.05189 0.0615,-2.12497 0.13859,-0.61092 0.10897,2.1392 0.26237,2.66584 0.61436,2.10925 0.20669,-0.32683 0.24695,-0.315 0.25035,0.0736 0.002,0.25466 0.12311,0.46302 0.26864,0.46302 0.48527,0 0.24491,-2.88375 -0.42454,-5.09323 -0.0772,-0.25466 -0.0132,-0.46302 0.14212,-0.46302 0.15533,0 0.28242,0.29063 0.28242,0.64584 0,0.35522 0.11762,0.71854 0.26139,0.80739 0.16684,0.10312 0.19991,-0.29795 0.0914,-1.10886 -0.0935,-0.69873 -0.27064,-1.3101 -0.39368,-1.35861 -0.12305,-0.0485 -0.22372,-0.25686 -0.22372,-0.46302 0,-0.20615 -0.1015,-0.37483 -0.22555,-0.37483 -0.12405,0 -0.30469,-1.0296 -0.40142,-2.28801 -0.13914,-1.8102 -0.28543,-2.38303 -0.70049,-2.74301 -0.37706,-0.32702 -0.53442,-0.81838 -0.55945,-1.74688 -0.0316,-1.17337 -0.0498,-1.20886 -0.19844,-0.38688 -0.09,0.49776 -0.31243,0.95416 -0.49434,1.01424 -0.2403,0.0794 -0.33072,-0.33082 -0.33072,-1.50032 0,-1.11015 -0.10262,-1.61019 -0.33073,-1.61162 -0.74086,-0.005 -1.37884,-2.90274 -0.72761,-3.30522 0.14552,-0.0899 0.26459,-0.63978 0.26459,-1.22186 0,-1.4175 0.51811,-1.07138 0.56519,0.37758 0.0198,0.60987 0.0876,0.84097 0.1507,0.51355 0.14202,-0.73736 0.60702,-0.78803 0.60702,-0.0661 0,0.29104 0.11906,0.52917 0.26459,0.52917 0.14552,0 0.26458,0.58828 0.26458,1.3073 0,0.71902 0.11906,1.38089 0.26458,1.47082 0.14552,0.0899 0.26459,0.4053 0.26459,0.70081 0,0.29551 0.22025,0.73497 0.48946,0.97657 0.37427,0.3359 0.55937,1.1096 0.78646,3.28734 0.16335,1.56643 0.44911,3.11424 0.63502,3.43958 0.18591,0.32535 0.46667,1.18685 0.62392,1.91445 l 0.28591,1.32292 0.19792,-2.64583 c 0.27781,-3.7139 0.56176,-5.43815 1.38339,-8.40052 0.66392,-2.39377 1.12507,-3.22446 1.17504,-2.11667 0.0131,0.29109 0.11977,0.19224 0.28719,-0.26623 0.39964,-1.09446 0.74642,-0.617 0.7812,1.07559 l 0.0309,1.50574 0.54269,-2.24783 c 0.57189,-2.36876 0.97086,-2.56163 0.47024,-0.22733 -0.16063,0.74897 -0.24536,1.40844 -0.18831,1.46549 0.0571,0.0571 0.43457,-0.67469 0.83893,-1.62611 1.266,-2.97878 1.54356,-2.02056 0.64851,2.23891 -0.74393,3.54033 -2.57229,8.84709 -3.32971,9.66435 -0.51405,0.55467 -0.63174,0.96582 -0.63174,2.20694 0,1.45027 -0.38255,4.20895 -0.70196,5.06204 -0.11838,0.31618 -0.18846,0.28963 -0.34468,-0.13054 -0.17844,-0.47998 -0.23538,-0.45142 -0.63305,0.31759 -0.24033,0.46475 -0.43697,1.4192 -0.43697,2.12098 0,0.70179 -0.29974,2.45761 -0.6661,3.90182 -0.36635,1.44422 -0.63021,2.7335 -0.58635,2.86507 0.0438,0.13158 0.59299,-0.18958 1.2203,-0.71368 1.27654,-1.06653 1.52149,-1.12451 2.33715,-0.55319 0.36122,0.25301 0.63133,0.30156 0.73595,0.13229 0.33628,-0.54412 0.56808,-0.24186 0.45434,0.59247 -0.0645,0.47295 -0.4308,1.21666 -0.81407,1.65269 l -0.69685,0.79279 0.7276,-0.64047 c 0.50589,-0.44531 0.72746,-0.52564 0.72713,-0.26363 -2.6e-4,0.20727 -0.55202,0.72532 -1.22613,1.15122 -1.11762,0.7061 -1.25398,0.73562 -1.54703,0.33484 -0.17676,-0.24174 -0.39897,-0.36194 -0.49379,-0.26712 -0.0948,0.0948 -0.44024,0.19191 -0.76759,0.21574 -0.5649,0.0411 -0.60963,0.20626 -0.87918,3.24579 -0.15621,1.76136 -0.41035,3.35907 -0.56476,3.55047 -0.15442,0.1914 -0.36475,0.74064 -0.46741,1.22054 -0.15243,0.71263 -0.25501,0.81579 -0.55972,0.56291 -0.29497,-0.2448 -0.37307,-0.21975 -0.37307,0.11965 0,0.2361 -0.12974,0.42927 -0.28832,0.42927 -0.34513,0 -1.15769,0.91245 -1.70824,1.91823 -0.46433,0.84826 -0.15075,0.9632 0.54135,0.19844 0.50734,-0.5606 0.92604,-0.68998 0.92604,-0.28615 0,0.13366 -0.44648,0.75562 -0.99219,1.38214 -2.26313,2.59829 -3.68062,3.86992 -4.69635,4.21308 -0.58208,0.19665 -1.1774,0.43887 -1.32292,0.53827 -0.14552,0.0994 -0.97895,0.3271 -1.85208,0.506 -0.87312,0.17889 -1.82235,0.48945 -2.10939,0.69013 -0.28704,0.20067 -0.84556,0.36486 -1.24116,0.36486 -0.39559,0 -0.79337,0.11991 -0.88395,0.26647 -0.0906,0.14655 -0.53012,0.45544 -0.97676,0.68641 -0.61291,0.31695 -0.86001,0.34241 -1.00747,0.1038 -0.15109,-0.24446 -0.54801,-0.24055 -1.75083,0.0173 -2.09046,0.4481 -2.71685,0.84287 -1.10284,0.69504 0.68549,-0.0628 1.30509,-0.0554 1.3769,0.0164 0.0718,0.0718 -1.02484,0.55134 -2.43698,1.06564 -1.8243,0.66441 -3.14721,0.96692 -4.5701,1.04505 -1.90207,0.10443 -2.04285,0.0725 -2.80486,-0.6363 -0.75398,-0.70133 -0.95646,-0.74959 -3.36426,-0.80175 -1.48571,-0.0322 -2.49951,0.0456 -2.41326,0.18516 0.23602,0.38189 -0.66198,0.72846 -2.37962,0.9184 -0.87313,0.0966 -1.914923,0.23711 -2.315113,0.31237 -0.43706,0.0822 -0.7276,0.0202 -0.7276,-0.15533 0,-0.16068 0.32742,-0.42246 0.7276,-0.58172 0.41251,-0.16417 0.583673,-0.34299 0.39523,-0.41293 -0.18281,-0.0678 -0.26508,-0.23224 -0.18282,-0.36534 0.18957,-0.30674 -0.541,-0.30741 -1.73376,-0.002 -0.50932,0.13059 -1.27702,0.3167 -1.70599,0.41358 -0.58744,0.13267 -0.68729,0.23342 -0.40454,0.40817 0.72101,0.44561 -0.019,0.61329 -1.35033,0.30598 -0.73811,-0.17038 -1.91832,-0.30978 -2.62269,-0.30978 -0.70438,0 -1.32454,-0.13156 -1.37814,-0.29236 -0.0855,-0.25641 -1.85639,-1.01578 -2.39404,-1.02657 -0.10914,-0.002 -0.20026,0.32344 -0.20249,0.72362 -0.005,0.8756 -0.20732,1.2122 -0.97074,1.61404 -0.73009,0.38429 -2.90502,0.39756 -3.13889,0.0192 z m 19.194929,-1.35536 c 0.2595,-0.16079 -0.0998,-0.19663 -1.03807,-0.10354 -0.78922,0.0783 -1.55832,0.26574 -1.7091,0.41652 -0.339599,0.3396 2.15211,0.0557 2.74717,-0.31298 z m 14.2875,-0.52498 c 0.27409,-0.17216 0.1513,-0.19739 -0.39687,-0.0816 -0.43656,0.0923 -0.91281,0.29174 -1.05834,0.44332 -0.30797,0.32079 0.81167,0.0425 1.45521,-0.36175 z m -20.439059,-0.10475 c 1.137,-0.18075 1.45311,-0.5308 0.72994,-0.8083 -0.47294,-0.18149 -3.04504,0.69927 -3.04504,1.0427 0,0.13255 0.26789,0.17426 0.59531,0.0927 0.32742,-0.0816 1.10133,-0.22877 1.71979,-0.32708 z m 12.335099,-0.585 c 0.0711,-0.11511 -0.27902,-0.16162 -0.77814,-0.10335 -0.49911,0.0583 -0.90748,0.15245 -0.90748,0.20929 0,0.19912 1.55758,0.10123 1.68562,-0.10594 z m -1.55333,-0.58446 c -0.0899,-0.14552 -0.48392,-0.2505 -0.87551,-0.23328 l -0.71199,0.0313 0.79375,0.20198 c 0.43656,0.11108 0.83054,0.21606 0.87551,0.23328 0.045,0.0172 0.008,-0.0878 -0.0818,-0.23328 z m -18.653119,-0.39688 c -1.2324,-0.47459 -1.45222,-0.47459 -1.05834,0 0.18116,0.21828 0.70175,0.38782 1.15688,0.37675 l 0.8275,-0.0201 z m 15.676559,-0.31902 c -0.32742,-0.0631 -0.8632,-0.0631 -1.19063,0 -0.32742,0.0631 -0.0595,0.11467 0.59532,0.11467 0.65484,0 0.92273,-0.0516 0.59531,-0.11467 z m 18.12784,-1.02744 c 0.89937,-0.86413 0.74753,-1.0281 -0.20291,-0.21911 -0.21861,0.18607 -0.75439,0.52441 -1.19063,0.75187 -0.71542,0.37303 -0.73443,0.41373 -0.19396,0.4152 0.32956,8.9e-4 1.04394,-0.42569 1.5875,-0.94796 z m -40.383219,-1.04515 c -1.12947,-0.49036 -1.33178,-0.48979 -0.68165,0.002 0.28248,0.21365 0.75172,0.38758 1.04276,0.38652 0.36635,-10e-4 0.25525,-0.12087 -0.36111,-0.38847 z m 44.928309,-0.406 c 0.61745,-0.44728 1.06357,-0.87231 0.99138,-0.9445 -0.1849,-0.1849 -2.13165,0.84016 -2.54774,1.34152 -0.61028,0.73534 0.3212,0.49773 1.55636,-0.39702 z m 1.74591,0.15032 c 0.29711,-0.18446 0.77336,-0.40347 1.05833,-0.48669 0.28498,-0.0832 0.10142,-0.0974 -0.4079,-0.0315 -1.28651,0.16642 -1.43291,0.21594 -2.14732,0.72647 l -0.63081,0.45079 0.79375,-0.16184 c 0.43657,-0.089 1.03684,-0.31276 1.33395,-0.49722 z m -3.81374,-0.0419 c 0.32927,-0.39915 0.30762,-0.41062 -0.23219,-0.12298 -0.61567,0.32806 -0.76727,0.56317 -0.36312,0.56317 0.1277,0 0.39559,-0.19808 0.59531,-0.44019 z m -46.063359,-1.13257 c -0.28421,-0.53105 -0.80164,-0.96636 -0.80164,-0.67442 0,0.36351 0.56398,1.18885 0.81237,1.18885 0.17271,0 0.16898,-0.17863 -0.0107,-0.51443 z m 50.527529,-0.0147 c 0,-0.14552 -0.11204,-0.26458 -0.24897,-0.26458 -0.13693,0 -0.32255,0.11906 -0.41249,0.26458 -0.0899,0.14552 0.0221,0.26459 0.24897,0.26459 0.22687,0 0.41249,-0.11907 0.41249,-0.26459 z m 1.85208,-0.26984 c 0,-0.14841 0.29766,-0.74136 0.66146,-1.31766 0.3638,-0.5763 0.66146,-1.12817 0.66146,-1.22637 0,-0.2695 -1.01683,0.70365 -1.90347,1.82169 l -0.78683,0.99218 h 0.68369 c 0.37603,0 0.68369,-0.12143 0.68369,-0.26984 z m -0.001,-2.28189 c -0.002,-0.28253 -1.29903,1.27961 -1.31209,1.57985 -0.005,0.1203 0.28814,-0.13501 0.65194,-0.56737 0.36381,-0.43235 0.66087,-0.88797 0.66015,-1.01248 z m 2.20662,0.60107 c 0.61144,-0.80164 0.61792,-0.84636 0.12262,-0.84636 -0.33807,0 -0.70219,0.35136 -1.02998,0.99388 -0.62976,1.23444 -0.0783,1.14478 0.90736,-0.14752 z m -57.692219,-2.28679 c -0.13114,-0.50149 -0.60475,-1.01489 -0.60475,-0.65556 0,0.22498 0.52374,1.18885 0.64599,1.18885 0.054,0 0.0355,-0.23998 -0.0412,-0.53329 z m -1.367349,-2.44328 c -0.223494,-0.61489 -1.860028,-1.89734 -2.10658,-1.65079 -0.158789,0.15879 1.81189,2.24611 2.120596,2.24611 0.111303,0 0.104993,-0.26789 -0.01402,-0.59532 z m 61.772888,-1.81171 0.11661,-1.16485 -0.37281,0.9509 c -0.20504,0.523 -0.57641,1.35644 -0.82526,1.85209 l -0.45244,0.90118 0.70865,-0.68724 c 0.49585,-0.48087 0.74366,-1.03701 0.82525,-1.85208 z m -28.75605,-1.13482 c 0.50688,-0.61075 0.81867,-0.52736 0.81867,0.21894 0,0.35521 0.11907,0.71943 0.26459,0.80936 0.15577,0.0963 0.26625,-0.19652 0.26863,-0.71199 0.002,-0.48153 0.11947,-1.0541 0.26053,-1.27238 0.199,-0.30793 0.25739,-0.22958 0.26053,0.34963 0.002,0.41057 0.18265,0.92509 0.40093,1.14338 0.35278,0.35277 0.39688,0.26248 0.39688,-0.81265 0,-1.32311 0.11392,-1.42788 0.83906,-0.77165 0.45432,0.41116 0.48385,0.40358 0.48385,-0.12424 0,-0.30917 0.22096,-0.95552 0.49102,-1.43633 0.3723,-0.66285 0.43,-1.03262 0.23869,-1.5294 l -0.25232,-0.6552 -0.22854,0.59091 c -0.56437,1.45923 -1.5473,-0.37678 -1.59118,-2.97216 -0.0203,-1.20345 -0.0464,-1.25721 -0.2881,-0.59531 -0.14616,0.40018 -0.34512,0.72735 -0.44214,0.72705 -0.097,-3.1e-4 -0.39297,-0.98257 -0.65768,-2.18282 -0.26471,-1.20024 -0.58753,-2.6585 -0.71739,-3.24059 -0.12986,-0.58208 -0.30969,-1.44528 -0.39963,-1.91823 -0.18478,-0.97168 -0.53284,-1.1187 -0.78294,-0.33072 -0.0924,0.29104 -0.25887,0.52916 -0.36999,0.52916 -0.26154,0 -0.72905,-0.94512 -1.04702,-2.11666 -0.29766,-1.09668 -2.33504,-6.79314 -2.55953,-7.15637 -0.0856,-0.13858 -0.34118,-0.25197 -0.56785,-0.25197 -0.30094,0 -0.36664,0.1606 -0.24354,0.59531 0.36223,1.27925 0.50845,4.96094 0.19703,4.96094 -0.18474,0 -0.30389,-0.47708 -0.30389,-1.21678 0,-0.66923 -0.19679,-1.63149 -0.43731,-2.13835 l -0.43731,-0.92157 -0.47975,1.01387 c -0.26387,0.55763 -0.4838,1.21663 -0.48873,1.46444 -0.0126,0.63148 -0.583919,1.83623 -1.133459,2.39008 -0.25466,0.25665 -0.46302,0.64524 -0.46302,0.86352 0,0.21828 -0.17859,0.39688 -0.39688,0.39688 -0.21828,0 -0.39687,-0.1786 -0.39687,-0.39688 0,-1.08464 -0.97128,0.061 -1.59931,1.88642 -0.55437,1.61128 -0.66595,2.4647 -0.19443,1.48702 0.15791,-0.32742 0.37309,-0.59531 0.47818,-0.59531 0.34857,0 0.49225,1.47193 0.24694,2.52975 -0.13292,0.57317 -0.24451,1.54111 -0.24799,2.15098 -0.003,0.60988 -0.12537,1.18245 -0.27089,1.27239 -0.14552,0.0899 -0.26537,0.8411 -0.26633,1.66926 -0.001,1.05744 -0.15825,1.74206 -0.52742,2.29949 -0.70576,1.06566 -0.70576,1.8115 0,1.5875 0.45444,-0.14423 0.52917,-0.0476 0.52917,0.68464 0,0.83582 0.0104,0.84317 0.52916,0.37369 0.52226,-0.47263 0.52917,-0.46213 0.52917,0.8047 v 1.28358 l 0.68512,-1.37487 c 0.64967,-1.3037 1.43155,-1.83786 1.43155,-0.97799 0,0.21828 0.11906,0.39688 0.26458,0.39688 0.14552,0 0.26458,-0.2311 0.26458,-0.51356 0,-0.82901 0.526949,-0.92242 0.549299,-0.0974 0.0197,0.7272 0.0273,0.72326 0.35415,-0.18282 0.18371,-0.50933 0.53184,-0.96454 0.77362,-1.01159 0.37281,-0.0725 0.44436,0.18873 0.4709,1.71979 0.0241,1.38931 0.0778,1.62242 0.23328,1.01159 0.11109,-0.43657 0.21606,-1.24024 0.23328,-1.78594 0.034,-1.07834 0.56047,-1.40366 0.56047,-0.34634 0,0.35521 0.11907,0.71942 0.26459,0.80936 0.14552,0.0899 0.26502,0.54345 0.26557,1.0078 l 9.9e-4,0.84428 0.52429,-0.85989 c 0.28835,-0.47294 0.6451,-0.8599 0.79276,-0.8599 0.14766,0 0.26847,-0.21828 0.26847,-0.48507 0,-1.0706 0.4214,-0.80336 0.83396,0.52886 0.33345,1.0768 0.44323,1.23892 0.46302,0.68382 0.0143,-0.40019 0.145,-0.72761 0.29052,-0.72761 0.15215,0 0.27961,0.92756 0.29993,2.18281 0.0298,1.84047 0.0623,1.99042 0.20727,0.95607 0.0946,-0.67471 0.33135,-1.41885 0.52621,-1.65364 z m 19.83922,2.17278 c 0.95217,-0.3514 0.53455,-0.50586 -0.85336,-0.31563 -0.79252,0.10863 -1.23385,0.30002 -1.23385,0.53507 0,0.37478 0.66717,0.30463 2.08721,-0.21944 z m -19.89553,-0.67642 c -0.0671,-0.25743 -0.12638,-0.11087 -0.13177,0.32569 -0.005,0.43657 0.0495,0.64719 0.12197,0.46806 0.0725,-0.17913 0.0769,-0.53632 0.01,-0.79375 z M 119.63,192.76278 c -0.066,-0.19816 -0.18599,-0.0782 -0.27955,0.27954 -0.11508,0.4401 -0.0806,0.5434 0.11569,0.34706 0.15375,-0.15375 0.22749,-0.43572 0.16386,-0.6266 z m -16.42547,-1.08523 c -0.0633,-0.32911 -0.11747,-0.12214 -0.1204,0.45994 -0.003,0.58208 0.0488,0.85136 0.11506,0.5984 0.0662,-0.25297 0.0686,-0.72922 0.005,-1.05834 z m 14.28111,0.54262 c -0.0845,-0.21106 -0.14715,-0.14837 -0.15985,0.15986 -0.0115,0.27891 0.0511,0.43518 0.13896,0.34726 0.0879,-0.0879 0.0973,-0.31612 0.0209,-0.50712 z m 7.40282,-0.28112 c -0.0734,-0.1819 -0.13345,-0.0331 -0.13345,0.33073 0,0.3638 0.0601,0.51263 0.13345,0.33073 0.0734,-0.1819 0.0734,-0.47956 0,-0.66146 z m -20.63198,0.0165 c -0.0845,-0.21107 -0.14716,-0.14837 -0.15986,0.15985 -0.0115,0.27892 0.0511,0.43519 0.13897,0.34727 0.0879,-0.0879 0.0973,-0.31612 0.0209,-0.50712 z m -25.958299,-0.89491 c -0.49756,-0.49756 -0.55292,-0.062 -0.097,0.76348 0.27867,0.5046 0.33147,0.51923 0.4162,0.11531 0.0534,-0.25443 -0.0902,-0.64988 -0.31916,-0.87879 z m 44.761409,-1.90089 c 0.1819,-0.06 0.33073,0.0931 0.33073,0.34025 0,0.41626 0.0478,0.41802 0.64934,0.0239 0.59875,-0.39232 0.6685,-0.39123 0.89528,0.014 0.19335,0.34549 0.28573,0.20395 0.43201,-0.66191 0.10235,-0.60576 0.29478,-1.16856 0.42764,-1.25067 0.13286,-0.0821 0.24156,-0.49946 0.24156,-0.92743 0,-0.51529 0.13406,-0.77814 0.39688,-0.77814 0.28564,0 0.39687,0.29225 0.39687,1.04272 0,1.09859 0.36283,1.62446 0.63374,0.9185 0.24293,-0.63307 0.19123,-1.9107 -0.0842,-2.08093 -0.13433,-0.083 -0.32423,-0.51516 -0.422,-0.96032 -0.12013,-0.54695 -0.29831,-0.76313 -0.54953,-0.66673 -0.25998,0.0998 -0.37175,-0.0622 -0.37175,-0.53881 0,-0.51464 -0.10315,-0.64188 -0.42136,-0.51977 -0.28109,0.10787 -0.46752,-0.0148 -0.56002,-0.36857 -0.0763,-0.29164 -0.24384,-0.53025 -0.37239,-0.53025 -0.12855,0 -0.23373,-0.46923 -0.23373,-1.04272 0,-0.5735 -0.10513,-1.1077 -0.23363,-1.18711 -0.1285,-0.0794 -0.37612,-1.11887 -0.55027,-2.3099 -0.2211,-1.5121 -0.5043,-2.41154 -0.93859,-2.98092 -0.38076,-0.4992 -0.65474,-1.26884 -0.7065,-1.98464 -0.0881,-1.21836 -0.74601,-1.89004 -0.74601,-0.76163 0,0.3438 -0.23812,0.79673 -0.52916,1.0065 -0.31075,0.22397 -0.52917,0.68492 -0.52917,1.11674 0,0.40444 -0.10117,0.73534 -0.22481,0.73534 -0.12365,0 -0.30214,-1.17998 -0.39666,-2.62218 -0.28563,-4.35858 -0.60625,-4.34152 -0.82577,0.0439 -0.10748,2.14722 -0.28858,3.96161 -0.40244,4.03199 -0.49522,0.30605 -0.85239,-0.68906 -0.68711,-1.91435 0.15616,-1.15771 0.13756,-1.21816 -0.23082,-0.75018 -0.22036,0.27994 -0.47496,0.90502 -0.56576,1.38906 -0.098,0.52245 -0.32296,0.88008 -0.55356,0.88008 -0.30664,0 -0.34248,-0.1811 -0.17015,-0.8599 0.29098,-1.1462 0.21928,-3.12898 -0.12075,-3.33913 -0.14978,-0.0926 -0.32477,-0.52512 -0.38886,-0.96121 -0.0857,-0.58313 -0.12701,-0.4679 -0.15617,0.43557 -0.0241,0.74564 -0.17761,1.28141 -0.39068,1.36317 -0.37824,0.14515 -0.84327,1.2926 -1.79125,4.41983 -0.77331,2.551 -1.05053,6.17732 -0.54454,7.12316 0.20067,0.37513 0.77308,1.48572 1.27202,2.46798 0.49894,0.98227 1.02138,1.78594 1.16098,1.78594 0.13961,0 0.26323,0.44649 0.27472,0.99219 0.0206,0.97698 0.025,0.98104 0.28663,0.26458 0.29444,-0.80617 0.68485,-0.94277 0.92274,-0.32284 0.096,0.25015 0.33995,0.34616 0.63868,0.25135 0.3883,-0.12324 0.51802,0.0313 0.65957,0.78586 0.0969,0.5166 0.22613,0.93928 0.28714,0.93928 0.061,0 0.46467,-0.40288 0.89701,-0.89529 0.88636,-1.00951 1.46505,-1.2408 2.31648,-0.92583 0.49718,0.18392 0.58979,0.42728 0.61428,1.61416 l 0.0288,1.39758 0.30189,-1.56659 c 0.16604,-0.86163 0.45072,-1.61569 0.63262,-1.67569 z m -47.294269,2.31624 c 0,-0.29104 -0.10792,-0.52916 -0.23981,-0.52916 -0.1319,0 -0.17755,0.23812 -0.10144,0.52916 0.0761,0.29104 0.18403,0.52917 0.23982,0.52917 0.0558,0 0.10143,-0.23813 0.10143,-0.52917 z m 20.01898,-0.85989 c -0.0734,-0.1819 -0.13345,-0.0331 -0.13345,0.33073 0,0.3638 0.0601,0.51263 0.13345,0.33072 0.0734,-0.1819 0.0734,-0.47955 0,-0.66145 z m 37.261109,-0.92497 c 0.28983,-0.16066 0.46479,-0.35429 0.3888,-0.43027 -0.20505,-0.20505 -1.79816,1.10897 -2.14905,1.77257 -0.21205,0.40103 -0.0715,0.32916 0.46466,-0.23766 0.42274,-0.44689 1.00576,-0.94397 1.29559,-1.10464 z m -31.96945,0.66038 c -0.0734,-0.1819 -0.13345,-0.0331 -0.13345,0.33073 0,0.3638 0.0601,0.51263 0.13345,0.33073 0.0734,-0.1819 0.0734,-0.47956 0,-0.66146 z m 34.85755,-0.75622 c 0.66833,-0.74334 1.21332,-1.54701 1.21109,-1.78593 -0.008,-0.8266 -0.40419,-1.13574 -1.21167,-0.94475 l -0.76865,0.18181 1.04588,-1.09251 c 0.76197,-0.79593 0.92357,-1.0925 0.59531,-1.0925 -0.24781,0 -0.45057,-0.11906 -0.45057,-0.26458 0,-0.45922 -0.49862,-0.28688 -0.80016,0.27657 -0.15929,0.29763 -0.46771,1.45849 -0.68538,2.57969 -0.21767,1.12119 -0.46223,2.36595 -0.54347,2.76613 -0.21828,1.0752 0.2398,0.89742 1.60762,-0.62393 z m 1.13391,0.36438 c -0.0671,-0.25743 -0.12638,-0.11087 -0.13177,0.3257 -0.005,0.43656 0.0495,0.64719 0.12197,0.46805 0.0725,-0.17913 0.0769,-0.53632 0.01,-0.79375 z m -61.121359,-0.12079 c -0.0845,-0.21106 -0.14716,-0.14837 -0.15985,0.15986 -0.0115,0.27891 0.051,0.43518 0.13896,0.34726 0.0879,-0.0879 0.0973,-0.31612 0.0209,-0.50712 z m 2.83151,-2.05062 c 0.23503,-0.71857 0.42733,-1.56659 0.42733,-1.88448 0,-0.48378 -0.0647,-0.52431 -0.39687,-0.24862 -0.21828,0.18116 -0.39688,0.55292 -0.39688,0.82615 0,0.27322 -0.16208,0.49677 -0.36018,0.49677 -0.33581,0 -0.34565,0.74689 -0.0235,1.78593 0.17247,0.55633 0.30571,0.38302 0.75014,-0.97575 z m -4.28666,-0.60293 c -0.189855,-0.18985 -0.31309,-0.20547 -0.31309,-0.0397 0,0.35316 0.312899,0.66605 0.489479,0.48947 0.07519,-0.0752 -0.0042,-0.27759 -0.176389,-0.44979 z m 55.079959,-0.0211 c 0.0839,-0.33418 0.067,-0.90655 -0.0375,-1.27194 -0.15956,-0.55804 -0.2958,-0.63438 -0.85141,-0.47711 -0.4203,0.11897 -0.49265,0.19685 -0.19844,0.21361 0.3594,0.0205 0.46302,0.2632 0.46302,1.0847 0,1.15144 0.37964,1.42554 0.6243,0.45074 z m -36.938359,-2.23821 c 0.23615,-0.0776 0.33073,0.28517 0.33073,1.26865 0,1.12226 0.0658,1.32279 0.35507,1.08268 0.19529,-0.16208 0.41912,-0.23064 0.49739,-0.15237 0.0783,0.0783 0.21964,-0.16575 0.31414,-0.54228 0.0996,-0.39679 0.29195,-0.61036 0.45757,-0.508 0.19744,0.12202 0.22924,-0.15779 0.10292,-0.90551 -0.10056,-0.59516 -0.0929,-1.22763 0.017,-1.40549 0.10993,-0.17786 0.17131,-0.93976 0.13641,-1.69311 -0.0456,-0.98364 0.0593,-1.49252 0.37219,-1.80536 0.2396,-0.23959 0.38214,-0.58339 0.31677,-0.764 -0.0678,-0.18718 -0.2658,-0.0155 -0.46061,0.39924 -0.18796,0.40018 -0.45557,0.72761 -0.5947,0.72761 -0.13912,0 -0.19606,0.29765 -0.12651,0.66145 0.17337,0.90694 -0.0814,0.83152 -1.10791,-0.32793 -0.70529,-0.79664 -0.91578,-1.31059 -1.08041,-2.63812 -0.11246,-0.90681 -0.38531,-1.82958 -0.60634,-2.0506 -0.22102,-0.22102 -0.47941,-0.79004 -0.57421,-1.26448 -0.30372,-1.52014 -1.49446,-4.96366 -1.71639,-4.96366 -0.28389,0 -0.5752,0.78045 -0.39821,1.06683 0.0766,0.12393 -0.1905,0.19998 -0.59355,0.169 -0.51914,-0.0399 -0.84682,-0.28615 -1.12379,-0.84452 l -0.39098,-0.78818 -0.15996,0.92604 c -0.16257,0.94113 -0.20805,0.90086 -0.74697,-0.66146 -0.23371,-0.67752 -0.25182,-0.59532 -0.12366,0.56141 0.0957,0.86353 0.0434,1.42112 -0.14404,1.53697 -0.20661,0.12769 -0.29417,-0.4575 -0.29417,-1.96609 0,-1.18134 -0.10234,-2.08465 -0.22742,-2.00734 -0.12509,0.0773 -0.3087,1.0666 -0.40803,2.19843 -0.18426,2.09942 -0.86617,5.01627 -1.2245,5.23773 -0.10928,0.0675 -0.28161,-0.3192 -0.38296,-0.85942 -0.11774,-0.6276 -0.0804,-1.01682 0.10328,-1.07806 0.15815,-0.0527 0.28755,-0.27155 0.28755,-0.48629 0,-0.21475 -0.11084,-0.32194 -0.2463,-0.23822 -0.13547,0.0837 -0.32109,0.0312 -0.41249,-0.11668 -0.43513,-0.70405 -0.52664,0.0281 -0.46252,3.70045 0.0538,3.07854 -0.0205,4.17769 -0.33073,4.8951 -1.33694,3.09176 -1.2698,2.863 -0.78578,2.67726 0.33798,-0.12969 0.4037,-0.0639 0.27394,0.27424 -0.28284,0.73708 0.38114,0.85523 1.04961,0.18677 0.78535,-0.78535 1.17407,-0.79521 1.19562,-0.0303 l 0.0168,0.59531 0.23929,-0.59531 c 0.257,-0.63938 0.89815,-0.79062 1.21034,-0.2855 0.12687,0.2053 0.26316,0.11603 0.40396,-0.26458 0.28872,-0.78048 0.71134,-0.72294 0.92438,0.12586 l 0.17575,0.70026 0.39691,-0.76641 c 0.72849,-1.40664 1.35488,-1.41691 1.41436,-0.0232 0.0307,0.72041 0.0534,0.74724 0.1547,0.18282 0.18737,-1.04445 0.60302,-1.27821 0.60302,-0.33914 0,0.45376 0.0889,1.04312 0.19758,1.30969 0.14919,0.36594 0.2302,0.23049 0.33073,-0.55299 0.18416,-1.43524 0.79461,-1.58339 0.79461,-0.19286 0,0.82392 0.11677,1.09962 0.51997,1.22759 0.33243,0.10551 0.5937,0.51752 0.72437,1.14231 l 0.20439,0.97727 0.13553,-1.3024 c 0.0745,-0.71632 0.28436,-1.35132 0.46626,-1.41111 z m -18.779871,0.61434 c -0.210498,-0.15514 -0.45217,-0.46067 -0.537049,-0.67895 -0.121717,-0.31301 -0.158741,-0.29707 -0.175215,0.0754 -0.01149,0.25978 0.18699,0.7896 0.441064,1.17736 0.406821,0.62089 0.473407,0.64555 0.557938,0.20662 0.05279,-0.27413 -0.07624,-0.62535 -0.286738,-0.78048 z m 13.562411,-1.0413 c -0.18714,-0.18715 -0.26739,0.0136 -0.25588,0.64016 0.0158,0.8577 0.0322,0.87416 0.27265,0.27265 0.16944,-0.4239 0.16377,-0.73227 -0.0168,-0.91281 z m 51.056519,-0.72721 c 0,-0.14553 -0.11906,-0.191 -0.26458,-0.10107 -0.14553,0.0899 -0.26459,0.28259 -0.26459,0.42811 0,0.14552 0.11906,0.191 0.26459,0.10106 0.14552,-0.0899 0.26458,-0.28258 0.26458,-0.4281 z m -59.964149,-0.0995 c -0.0834,-0.21744 -0.26024,-0.32828 -0.39289,-0.2463 -0.27744,0.17147 -0.0547,0.64166 0.30393,0.64166 0.13237,0 0.1724,-0.17791 0.089,-0.39536 z m 58.557389,-0.18342 c -0.0845,-0.21106 -0.14716,-0.14837 -0.15985,0.15986 -0.0115,0.27891 0.051,0.43518 0.13896,0.34726 0.0879,-0.0879 0.0973,-0.31612 0.0209,-0.50712 z m 5.2438,-1.22863 c -0.17565,-0.17564 -1.19121,0.76283 -1.19121,1.10079 0,0.14833 0.29719,-0.01 0.66042,-0.35073 0.36323,-0.34124 0.60208,-0.67876 0.53079,-0.75006 z m -63.235999,0.74908 c 0.0899,-0.14553 0.0374,-0.26459 -0.11668,-0.26459 -0.1541,0 -0.28019,0.11906 -0.28019,0.26459 0,0.14552 0.0525,0.26458 0.11667,0.26458 0.0642,0 0.19026,-0.11906 0.2802,-0.26458 z m 48.017819,-1.53697 c -0.003,-1.06979 -0.0783,-1.39084 -0.26053,-1.10887 -0.34543,0.53452 -0.34543,2.99162 0,2.77813 0.14552,-0.0899 0.26276,-0.84111 0.26053,-1.66926 z m -15.68759,0.0206 c -0.0671,-0.25743 -0.12638,-0.11087 -0.13177,0.32569 -0.005,0.43656 0.0495,0.64719 0.12197,0.46806 0.0725,-0.17913 0.0769,-0.53632 0.01,-0.79375 z m 26.23749,0.52413 c 0.16674,-0.31421 0.13614,-0.56434 -0.0952,-0.77826 -0.27135,-0.25089 -0.36425,-0.15638 -0.45516,0.46302 -0.12659,0.86253 0.16986,1.03231 0.55039,0.31524 z m -57.112509,-0.95979 c 0,-0.0549 -0.17859,-0.24812 -0.39688,-0.42927 -0.32504,-0.26977 -0.39687,-0.25169 -0.39687,0.0999 0,0.2361 0.17859,0.42927 0.39687,0.42927 0.21829,0 0.39688,-0.045 0.39688,-0.0999 z m 15.83964,-1.88448 c 0.0224,-0.4354 -0.0182,-0.45884 -0.22922,-0.13229 -0.14107,0.21828 -0.24422,0.81359 -0.22923,1.32291 l 0.0272,0.92604 0.20198,-0.79375 c 0.11108,-0.43656 0.21423,-1.03187 0.22922,-1.32291 z m 42.098839,0.9444 c 0.18012,-0.62804 0.1609,-0.82032 -0.0743,-0.74316 -0.17451,0.0572 -0.35681,0.51147 -0.40511,1.00938 -0.10337,1.06563 0.13549,0.93299 0.47942,-0.26622 z m -56.699409,-0.068 c -0.0845,-0.21107 -0.14715,-0.14837 -0.15985,0.15985 -0.0115,0.27892 0.0511,0.43519 0.13897,0.34727 0.0879,-0.0879 0.0973,-0.31612 0.0209,-0.50712 z M 110.52802,178.454 c -0.57116,-1.80076 -0.80201,-2.04931 -0.67598,-0.72782 0.0552,0.57921 0.20691,1.11891 0.33706,1.19935 0.13015,0.0804 0.24026,0.52617 0.24468,0.99053 0.007,0.69123 0.056,0.76193 0.27283,0.39002 0.18709,-0.32098 0.13469,-0.86437 -0.17859,-1.85208 z m -29.867909,1.11571 c 0.0899,-0.14552 0.0374,-0.26458 -0.11668,-0.26458 -0.1541,0 -0.28019,0.11906 -0.28019,0.26458 0,0.14552 0.0525,0.26459 0.11667,0.26459 0.0642,0 0.19026,-0.11907 0.2802,-0.26459 z m 12.33181,-3.45048 c -0.23466,-0.58778 -0.26134,-0.54524 -0.2765,0.44085 -0.009,0.60027 0.0725,1.49324 0.18167,1.98437 0.18949,0.85272 0.20196,0.83286 0.27649,-0.44085 0.0429,-0.73359 -0.0388,-1.62656 -0.18166,-1.98437 z m 46.184389,0.0244 c -0.43363,-1.03128 -1.38847,-1.41706 -1.13095,-0.45693 0.0849,0.31663 0.16439,0.75427 0.17661,0.97256 0.0149,0.26706 0.0966,0.22379 0.2496,-0.1323 0.16763,-0.39009 0.23228,-0.16989 0.24599,0.83785 0.0115,0.84308 0.14535,1.40993 0.34932,1.47898 0.48928,0.16563 0.56182,-1.62423 0.10943,-2.70016 z m -13.6708,-0.0797 c -0.002,-0.83958 -0.49912,-2.5308 -0.79809,-2.71557 -0.14455,-0.0893 -0.20113,0.15882 -0.13357,0.58575 0.0645,0.40742 0.18714,1.18724 0.27259,1.73295 0.168,1.07293 0.66148,1.37009 0.65907,0.39687 z m -7.27155,-6.73759 c -0.0857,-0.46784 -0.28299,-0.92922 -0.43843,-1.02529 -0.18667,-0.11537 -0.23325,0.0836 -0.13718,0.58603 0.08,0.41839 0.24155,2.18946 0.35902,3.93571 l 0.21357,3.175 0.0794,-2.91042 c 0.0437,-1.60073 0.009,-3.29319 -0.0764,-3.76103 z m 21.29594,5.8777 c 0,-0.21828 -0.11532,-0.39688 -0.25628,-0.39688 -0.14095,0 -0.18774,0.1786 -0.10398,0.39688 0.0838,0.21828 0.19909,0.39687 0.25628,0.39687 0.0572,0 0.10398,-0.17859 0.10398,-0.39687 z m -16.13958,-1.19063 c 0,-0.43656 -0.11906,-0.79375 -0.26458,-0.79375 -0.2943,0 -0.36518,1.13413 -0.0882,1.41111 0.29892,0.29892 0.35278,0.20467 0.35278,-0.61736 z m -17.13091,-0.83258 c -0.14679,-0.14678 -0.18562,0.10005 -0.0984,0.62583 0.1218,0.73473 0.15907,0.77199 0.24238,0.24238 0.0541,-0.3442 -0.0106,-0.7349 -0.14393,-0.86821 z m 35.10207,-2.15329 c 0.0168,-0.38624 -0.0727,-0.42246 -0.49074,-0.19872 -0.67638,0.36199 -0.90477,1.16109 -0.671,2.3477 l 0.19094,0.96918 0.47515,-1.32291 c 0.26133,-0.72761 0.48437,-1.53547 0.49565,-1.79525 z m -17.99753,1.59681 c -0.0145,-0.1819 -0.1217,-0.62839 -0.23821,-0.99219 -0.18906,-0.59032 -0.21468,-0.55476 -0.23821,0.33073 -0.0145,0.5457 0.0927,0.99219 0.23821,0.99219 0.14552,0 0.25271,-0.14883 0.23821,-0.33073 z m -24.399139,-1.0418 c -0.0845,-0.21106 -0.14716,-0.14837 -0.15985,0.15985 -0.0115,0.27892 0.051,0.43519 0.13896,0.34727 0.0879,-0.0879 0.0973,-0.31612 0.0209,-0.50712 z m 7.672919,0 c -0.0845,-0.21106 -0.14716,-0.14837 -0.15986,0.15985 -0.0115,0.27892 0.0511,0.43519 0.13897,0.34727 0.0879,-0.0879 0.0973,-0.31612 0.0209,-0.50712 z m 14.37948,-0.96589 c -0.19569,-0.33528 -0.25456,-0.18837 -0.24791,0.61863 0.008,0.92565 0.0398,0.98077 0.25664,0.4397 0.15629,-0.39 0.15306,-0.78113 -0.009,-1.05833 z m -20.89304,-0.90273 c 0.16619,-0.61846 0.41889,-1.1972 0.56155,-1.28609 0.1443,-0.0899 0.0734,-0.23297 -0.15967,-0.32243 -0.25808,-0.099 -0.41906,-0.02 -0.41906,0.20572 0,0.20158 -0.121869,0.40714 -0.270829,0.45679 -0.14895,0.0496 -0.34312,0.53582 -0.43149,1.08038 -0.22543,1.38914 0.33841,1.28384 0.719499,-0.13437 z m 19.96176,-2.44739 -0.39591,-1.32292 0.14223,2.05983 c 0.17332,2.50994 0.48718,3.46724 0.58248,1.77663 0.0369,-0.65485 -0.11105,-1.78594 -0.3288,-2.51354 z m -32.925299,0.65027 -0.48922,-1.97319 -0.0291,1.26991 c -0.0252,1.10231 0.61559,3.0684 0.90561,2.77839 0.056,-0.0561 -0.11823,-0.98986 -0.3873,-2.07511 z m 18.160569,0.74187 c -0.0633,-0.32911 -0.11747,-0.12214 -0.12041,0.45994 -0.003,0.58208 0.0488,0.85136 0.11507,0.5984 0.0662,-0.25297 0.0686,-0.72922 0.005,-1.05834 z m 36.11754,-1.72287 c 0.0662,-1.20055 0.0337,-2.18282 -0.0722,-2.18282 -0.36979,0 -0.51366,0.85306 -0.50568,2.99821 0.0102,2.74062 0.41322,2.17197 0.57788,-0.81539 z m -37.7407,-1.05047 c -0.2954,-1.13997 -0.33682,-1.809 -0.15192,-2.45371 0.18087,-0.63064 0.16302,-0.99629 -0.0619,-1.26725 -0.26386,-0.31793 -0.3493,-0.25663 -0.51715,0.37099 -0.24807,0.92757 -0.064,2.43213 0.52663,4.30512 0.57873,1.8352 0.73637,1.0982 0.2043,-0.95515 z m 13.88902,0.98432 c 0.13586,0 0.23897,-0.50601 0.22915,-1.12448 l -0.0179,-1.12448 -0.36734,1.32292 c -0.20203,0.7276 -0.35475,1.56104 -0.33937,1.85208 0.0162,0.30619 0.0744,0.22257 0.13819,-0.19843 0.0606,-0.40019 0.22138,-0.72761 0.35723,-0.72761 z m -47.98461,-0.59223 c -0.06329,-0.32911 -0.117469,-0.12214 -0.120406,0.45994 -0.0029,0.58208 0.04884,0.85136 0.115067,0.5984 0.06622,-0.25297 0.06863,-0.72922 0.0053,-1.05834 z m 32.53997,0.13425 c -0.0671,-0.25743 -0.12638,-0.11087 -0.13177,0.32569 -0.005,0.43656 0.0495,0.64719 0.12197,0.46806 0.0725,-0.17914 0.0769,-0.53632 0.01,-0.79375 z m -12.586469,-0.77894 c -0.3119,-0.53637 -0.38722,-0.36469 -0.1319,0.30065 0.0907,0.23646 0.22071,0.37419 0.28883,0.30607 0.0681,-0.0681 -0.002,-0.34115 -0.15693,-0.60672 z m -3.81119,-1.33913 c -0.0608,-0.40218 -0.1122,-0.13593 -0.11418,0.59168 -0.002,0.7276 0.0478,1.05666 0.11057,0.73124 0.0628,-0.32542 0.0644,-0.92073 0.004,-1.32292 z m 33.857549,0.93894 c -0.0845,-0.21106 -0.14716,-0.14837 -0.15985,0.15985 -0.0115,0.27892 0.051,0.43519 0.13896,0.34727 0.0879,-0.0879 0.0973,-0.31612 0.0209,-0.50712 z m -32.502619,-2.50961 c -0.48958,-2.05623 -0.63704,-2.41152 -0.70506,-1.6987 -0.0823,0.86253 0.95457,4.6683 1.20392,4.41895 0.0661,-0.0661 -0.15837,-1.29022 -0.49886,-2.72025 z m 55.547219,0.70726 0.005,-0.66146 -0.21183,0.66146 c -0.11651,0.3638 -0.20962,1.01864 -0.20691,1.45521 l 0.005,0.79375 0.20198,-0.79375 c 0.11109,-0.43657 0.20419,-1.09141 0.2069,-1.45521 z m -23.62268,-3.11398 c -0.20084,-1.36589 -0.52842,-1.26284 -0.76904,0.24193 -0.11943,0.74683 -0.0738,1.17236 0.1399,1.30442 0.17442,0.10781 0.38737,0.89158 0.47322,1.74171 l 0.15607,1.54571 0.083,-1.85208 c 0.0456,-1.01865 0.008,-2.36041 -0.0831,-2.98169 z m 25.60719,1.71298 c 0.54097,-1.64368 0.98359,-3.25885 0.98359,-3.58927 0,-0.33042 0.10274,-0.8013 0.22831,-1.0464 0.12557,-0.24509 0.30272,-0.9814 0.39367,-1.63625 l 0.16537,-1.19062 -0.46582,0.92604 c -1.5304,3.04244 -2.17796,4.87135 -2.3173,6.54481 -0.082,0.98426 -0.20449,2.05745 -0.27229,2.38488 -0.0678,0.32742 -0.0278,0.59531 0.0888,0.59531 0.11664,0 0.65469,-1.34483 1.19566,-2.9885 z m -26.35785,1.86402 c -0.0734,-0.1819 -0.13345,-0.0331 -0.13345,0.33073 0,0.3638 0.06,0.51263 0.13345,0.33073 0.0734,-0.1819 0.0734,-0.47956 0,-0.66146 z m -0.75031,-1.05833 c 0.14731,-0.54571 0.18043,-0.99219 0.0736,-0.99219 -0.30406,0 -1.01969,1.67911 -0.88378,2.07367 0.1738,0.5046 0.49932,0.0701 0.81019,-1.08148 z m -27.471999,-0.12233 c -0.28829,-0.4496 -0.29576,-0.44902 -0.15102,0.0117 0.0837,0.26657 0.16167,0.62375 0.17316,0.79375 0.0151,0.22309 0.0571,0.21984 0.15102,-0.0117 0.0716,-0.17642 -0.006,-0.5336 -0.17316,-0.79375 z m 12.163979,-0.3407 c 0,-0.35277 -0.0285,-0.35277 -0.25648,0 -0.14106,0.21829 -0.25648,0.57547 -0.25648,0.79375 0,0.35278 0.0285,0.35278 0.25648,0 0.14106,-0.21828 0.25648,-0.57546 0.25648,-0.79375 z m 39.87634,0.21498 c -0.0845,-0.21107 -0.14715,-0.14837 -0.15985,0.15985 -0.0115,0.27892 0.0511,0.43519 0.13896,0.34727 0.0879,-0.0879 0.0973,-0.31613 0.0209,-0.50712 z M 89.614641,161.699 c -0.0862,-0.22456 -0.21341,-0.35155 -0.28277,-0.28219 -0.0694,0.0694 -0.0476,0.25308 0.0483,0.40829 0.26089,0.42213 0.41338,0.34012 0.23447,-0.1261 z m 52.245379,-1.50995 c 0.16974,-1.05502 0.36938,-2.21588 0.44364,-2.57969 0.0743,-0.3638 -0.0841,10e-4 -0.35188,0.81116 -0.60079,1.81712 -0.91554,3.68676 -0.62067,3.68676 0.12115,0 0.35916,-0.8632 0.52891,-1.91823 z m -21.73437,0.26459 c -0.0734,-0.18191 -0.13345,-0.0331 -0.13345,0.33072 0,0.36381 0.0601,0.51264 0.13345,0.33073 0.0734,-0.1819 0.0734,-0.47955 0,-0.66145 z m -49.733535,-0.65643 c -0.06708,-0.25743 -0.126382,-0.11087 -0.131774,0.3257 -0.0054,0.43656 0.04949,0.64718 0.12197,0.46805 0.07247,-0.17913 0.07689,-0.53632 0.0098,-0.79375 z m 50.003635,-0.64995 c -0.0845,-0.21107 -0.14716,-0.14838 -0.15985,0.15985 -0.0115,0.27891 0.051,0.43518 0.13896,0.34726 0.0879,-0.0879 0.0973,-0.31612 0.0209,-0.50711 z m -12.23989,-7.47791 c 0.27384,-1.01939 0.15267,-1.4938 -0.54719,-2.14241 -1.06497,-0.98697 -1.24678,-0.83444 -1.06608,0.89441 0.22621,2.16426 0.37134,2.47491 0.97896,2.09544 0.26875,-0.16784 0.5542,-0.54919 0.63431,-0.84744 z m -12.630939,-3.37001 c -0.0845,-0.21107 -0.14716,-0.14837 -0.15986,0.15985 -0.0115,0.27892 0.0511,0.43519 0.13897,0.34727 0.0879,-0.0879 0.0973,-0.31613 0.0209,-0.50712 z m 12.519259,-0.0827 c 0,-0.36381 -0.11907,-0.66146 -0.26459,-0.66146 -0.29558,0 -0.36266,0.87205 -0.0882,1.14653 0.29166,0.29166 0.35278,0.20762 0.35278,-0.48507 z m -2.09727,-1.12141 c -0.40979,-0.89941 -0.56757,-0.65593 -0.36878,0.56909 0.13337,0.82183 0.21037,0.92361 0.41803,0.55254 0.16867,-0.30139 0.15205,-0.67983 -0.0493,-1.12163 z m 17.89104,0.53113 c -0.0671,-0.25743 -0.12639,-0.11087 -0.13178,0.32569 -0.005,0.43657 0.0495,0.64719 0.12197,0.46806 0.0725,-0.17913 0.0769,-0.53632 0.01,-0.79375 z m -27.260209,-0.40191 c -0.0734,-0.1819 -0.13345,-0.0331 -0.13345,0.33073 0,0.3638 0.06,0.51263 0.13345,0.33073 0.0734,-0.1819 0.0734,-0.47956 0,-0.66146 z m 13.659859,0.0658 c 0.0762,-0.29124 0.0305,-0.46281 -0.10143,-0.38126 -0.13195,0.0815 -0.23991,0.31984 -0.23991,0.52953 0,0.54762 0.17978,0.46953 0.34134,-0.14827 z m -13.590129,-3.02609 0.0196,-1.30666 -0.52916,0.56799 c -0.42667,0.45798 -0.52537,0.91608 -0.50955,2.365 l 0.0196,1.797 0.48993,-1.05833 c 0.26945,-0.58209 0.49875,-1.64633 0.50954,-2.365 z m 12.793409,0.24833 c -0.15375,-0.4597 -0.20083,-0.42497 -0.35866,0.26458 -0.0999,0.43657 -0.18513,1.27 -0.18933,1.85209 l -0.008,1.05833 0.36631,-1.32292 c 0.20146,-0.7276 0.28666,-1.56104 0.18933,-1.85208 z m -14.644469,2.3151 c -0.0102,-0.25466 -0.12092,-0.70114 -0.24598,-0.99218 -0.18241,-0.42449 -0.23107,-0.3329 -0.24599,0.46302 -0.0102,0.5457 0.10047,0.99218 0.24599,0.99218 0.14552,0 0.25621,-0.20835 0.24598,-0.46302 z m 28.239659,-0.92604 c -0.0734,-0.1819 -0.13345,-0.0331 -0.13345,0.33073 0,0.3638 0.0601,0.51263 0.13345,0.33073 0.0734,-0.1819 0.0734,-0.47956 0,-0.66146 z m -18.45434,-0.7276 c 0.11362,0 0.33578,0.26789 0.49369,0.59531 0.50576,1.04868 0.34221,0.0227 -0.19684,-1.23484 -0.28587,-0.6669 -0.64306,-1.21256 -0.79375,-1.21256 -0.15468,0 -0.27399,0.61448 -0.27399,1.41112 0,1.49359 0.33903,2.2892 0.4806,1.12781 0.046,-0.37776 0.17668,-0.68684 0.29029,-0.68684 z m 6.35021,0.13229 -0.0145,-0.52917 -0.22739,0.52917 c -0.12507,0.29104 -0.23394,0.70776 -0.24194,0.92604 -0.0129,0.35278 0.014,0.35278 0.24194,0 0.14106,-0.21828 0.24993,-0.635 0.24193,-0.92604 z m -2.41628,-1.5875 c 0.005,-0.77031 -10e-4,-0.77422 -0.2069,-0.13229 -0.11651,0.3638 -0.20962,1.07817 -0.20691,1.5875 l 0.005,0.92604 0.20198,-0.79375 c 0.11109,-0.43656 0.20419,-1.15094 0.2069,-1.5875 z m -9.126949,0.63533 c 0.17742,-1.32281 -0.0543,-2.21053 -0.36804,-1.40974 -0.27945,0.71335 -0.28584,2.82025 -0.008,2.64856 0.12588,-0.0778 0.29512,-0.63527 0.37607,-1.23882 z m 12.605619,-0.15341 c 0.0102,-0.31703 0.16742,-0.73375 0.34933,-0.92604 0.42625,-0.45062 0.98054,-1.89846 1.27483,-3.32998 0.12757,-0.62054 0.34166,-1.33491 0.47575,-1.5875 0.13409,-0.25258 0.23722,-1.70939 0.22917,-3.23736 -0.0127,-2.41217 -0.0563,-2.6775 -0.33075,-2.01421 -0.17387,0.42015 -0.37094,0.65828 -0.43794,0.52917 -0.067,-0.12911 -0.15547,-3.13634 -0.19659,-6.68273 -0.0538,-4.63612 0.007,-6.39747 0.21605,-6.26824 0.18796,0.11616 0.29083,1.43311 0.29083,3.72309 0,3.31751 0.25125,5.07419 1.00245,7.00875 0.25012,0.64413 0.26435,0.63372 0.54294,-0.39687 0.15734,-0.58208 0.46821,-2.07037 0.6908,-3.30729 0.22259,-1.23693 0.52204,-2.72521 0.66545,-3.30729 0.1434,-0.58209 0.25082,-1.59412 0.23871,-2.24896 l -0.022,-1.19063 -0.25182,1.12448 c -0.1385,0.61846 -0.34999,1.12448 -0.46997,1.12448 -0.11999,0 -0.28356,0.2501 -0.3635,0.55579 -0.0834,0.31895 -0.26994,0.47878 -0.43775,0.37507 -0.18979,-0.1173 -0.28401,-1.31047 -0.26849,-3.40006 0.0131,-1.77064 -0.0999,-3.62997 -0.25119,-4.13186 -0.15739,-0.52207 -0.17456,-0.9749 -0.0401,-1.05833 0.2999,-0.18611 0.12086,-4.46863 -0.20363,-4.87078 -0.13408,-0.16617 -0.37939,-1.31415 -0.54513,-2.55108 -0.16575,-1.23693 -0.46349,-2.9038 -0.66166,-3.70417 l -0.36031,-1.45521 -0.0292,1.38907 c -0.0161,0.76398 -0.14832,1.38906 -0.29384,1.38906 -0.14552,0 -0.26459,-0.17273 -0.26459,-0.38385 0,-0.88437 -0.59133,-3.04855 -0.79806,-2.92078 -0.12334,0.0762 -0.26386,-0.19084 -0.31227,-0.59349 -0.0823,-0.68464 -0.14514,-0.63348 -0.9693,0.78926 -0.93115,1.60741 -1.39557,2.07595 -1.56221,1.57605 -0.058,-0.17402 -0.38289,0.004 -0.7612,0.41617 -0.39854,0.43462 -0.71032,0.59987 -0.787,0.41712 -0.22749,-0.54213 -1.15996,-0.0752 -1.15996,0.58086 0,0.33736 -0.1378,0.94855 -0.30622,1.35821 -0.26969,0.65594 -0.32011,0.68168 -0.42256,0.21566 -0.24795,-1.1279 -0.59413,-1.00457 -0.59413,0.21166 0,1.15006 -0.0497,1.24355 -0.66146,1.24355 -0.50187,0 -0.66773,-0.14363 -0.68744,-0.59532 -0.0172,-0.39478 -0.12862,-0.23882 -0.33073,0.46302 -0.16761,0.58209 -0.46925,1.34769 -0.67031,1.70133 -0.34246,0.60237 -0.38725,0.61333 -0.70897,0.17336 -0.30923,-0.4229 -0.35185,-0.38156 -0.42819,0.41533 -0.0466,0.48674 -0.19053,0.84505 -0.31978,0.79624 -0.34703,-0.13105 -0.68237,0.51811 -0.68699,1.3299 -0.002,0.3916 -0.12311,0.78557 -0.26863,0.87551 -0.328579,0.20307 -0.350239,1.63562 -0.0277,1.83494 0.13026,0.0805 0.24316,1.12932 0.25088,2.33072 0.0202,3.13955 0.3166,5.62942 0.61761,5.18808 0.15525,-0.22762 0.21521,0.48484 0.1647,1.95724 -0.0437,1.27333 0.01,2.31512 0.11904,2.3151 0.10914,-2e-5 0.20749,0.86317 0.21856,1.91819 0.0199,1.8985 0.0238,1.90871 0.37675,0.99219 0.19614,-0.50932 0.36897,-0.86651 0.38407,-0.79375 0.0151,0.0728 0.073,2.03729 0.12868,4.36563 0.0701,2.93078 0.2249,4.55897 0.5032,5.29166 l 0.40197,1.05834 0.0493,-1.19063 c 0.0271,-0.65484 0.10832,-0.9525 0.18042,-0.66146 0.0721,0.29104 0.29642,0.62438 0.49848,0.74075 0.20206,0.11638 0.36738,0.38427 0.36738,0.59532 0,0.21105 0.17859,0.38372 0.39687,0.38372 0.23418,0 0.39828,0.24405 0.40028,0.59532 0.002,0.32742 0.28307,1.19062 0.62488,1.91823 l 0.62147,1.32291 -0.0901,-3.04271 c -0.0514,-1.73394 -3e-5,-2.75819 0.11934,-2.38125 0.18263,0.57673 0.23276,0.49574 0.3913,-0.63224 0.10001,-0.71153 0.18183,-2.05801 0.18183,-2.99217 0,-1.06495 0.0987,-1.63749 0.26459,-1.53496 0.14552,0.0899 0.26458,1.05649 0.26458,2.1479 0,1.10069 0.10548,1.91918 0.23686,1.83798 0.39691,-0.2453 0.55605,0.58005 0.5748,2.98107 0.0151,1.935 0.065,2.19008 0.31923,1.63201 0.16573,-0.3638 0.81189,-1.73302 1.4359,-3.04271 0.68252,-1.43249 1.14948,-2.80292 1.172,-3.43958 0.0216,-0.61167 0.0858,-0.80709 0.1521,-0.46303 0.0631,0.32743 0.22544,0.59532 0.36084,0.59532 0.1354,0 0.24619,0.2311 0.24619,0.51355 0,1.00979 0.46901,0.7786 0.797,-0.39288 0.4036,-1.44152 0.87921,-1.86118 0.69103,-0.60974 -0.0733,0.48727 -0.27654,1.83844 -0.4517,3.00261 -0.17515,1.16417 -0.46657,2.29526 -0.64759,2.51354 -0.41129,0.49596 -0.92402,2.87925 -0.89931,4.18021 0.015,0.78852 0.0629,0.87614 0.24598,0.45 0.12507,-0.29104 0.23576,-0.78855 0.24599,-1.10558 z m -18.586079,0.65909 c -0.0845,-0.21106 -0.14716,-0.14837 -0.15985,0.15986 -0.0115,0.27891 0.051,0.43518 0.13896,0.34726 0.0879,-0.0879 0.0973,-0.31612 0.0209,-0.50712 z m 12.022389,-0.65815 c -0.2306,-0.39655 -0.28223,-0.40798 -0.28883,-0.0639 -0.009,0.44558 0.26966,0.84678 0.45717,0.65926 0.0619,-0.0618 -0.0139,-0.32974 -0.16834,-0.59532 z m 18.16193,-0.88073 c -0.43715,-0.69999 -0.7332,-0.39522 -0.72293,0.74421 l 0.009,0.97658 0.51129,-0.61343 c 0.41426,-0.497 0.45275,-0.70717 0.20283,-1.10736 z m -25.889789,-1.05734 c -0.008,-0.94588 -0.11687,-1.95792 -0.24194,-2.24896 -0.14793,-0.34426 -0.23247,0.39537 -0.24193,2.11667 -0.01,1.80002 0.0674,2.51896 0.24193,2.24896 0.14107,-0.21828 0.24994,-1.17078 0.24194,-2.11667 z m -2.54654,0.19844 c 0.1409,-1.43185 -0.14861,-2.0666 -0.51138,-1.12123 -0.14441,0.37633 0.12235,2.92756 0.28576,2.73298 0.0418,-0.0497 0.14329,-0.77501 0.22562,-1.61175 z m 12.720239,0.64566 c 0.0532,-0.45734 -0.006,-0.7678 -0.13233,-0.68991 -0.12603,0.0779 -0.22914,0.51163 -0.22914,0.96386 0,1.02092 0.2311,0.84578 0.36147,-0.27395 z m 17.36561,0.48764 c 0,-0.23769 0.14288,-0.57503 0.3175,-0.74966 0.24695,-0.24694 0.19482,-0.3175 -0.23455,-0.3175 -0.4039,0 -0.58158,0.20119 -0.66208,0.74966 -0.0728,0.49572 0.007,0.74965 0.23455,0.74965 0.18952,0 0.34458,-0.19447 0.34458,-0.43215 z m -22.9933,-1.78715 c -0.24965,-0.42891 -0.27465,-0.41977 -0.28198,0.10304 -0.004,0.31552 0.0802,0.79177 0.188,1.05834 0.17652,0.43638 0.20461,0.42612 0.28199,-0.10305 0.0473,-0.32324 -0.0373,-0.79949 -0.18801,-1.05833 z m 7.35735,0.0585 -0.0174,-0.79375 -0.34549,0.78387 c -0.37829,0.85829 -0.25082,1.79935 0.15665,1.15654 0.12304,-0.1941 0.21587,-0.7101 0.20628,-1.14666 z m -13.693849,0.0952 c -0.18126,-0.62986 -0.26276,-0.72173 -0.27967,-0.31524 -0.0268,0.64351 0.24484,1.49478 0.42078,1.31883 0.0631,-0.0631 -4.2e-4,-0.51469 -0.14111,-1.00359 z m 8.791519,0.0702 c -0.093,-0.46486 -0.22419,-0.79004 -0.2916,-0.72264 -0.0674,0.0674 -0.0404,0.49678 0.0601,0.95415 0.10046,0.45737 0.23168,0.78256 0.2916,0.72264 0.0599,-0.0599 0.0329,-0.48929 -0.0601,-0.95415 z m -11.032239,-0.23151 c -0.084,-0.5457 -0.23982,-2.06375 -0.34624,-3.37344 -0.12634,-1.55481 -0.25368,-2.15168 -0.36692,-1.71979 -0.17067,0.6509 -0.17961,0.64668 -0.56064,-0.26458 -0.21296,-0.50933 -0.55987,-1.46183 -0.77092,-2.11667 -0.29532,-0.91635 -0.40333,-1.05243 -0.46886,-0.59074 -0.0468,0.32994 0.16153,1.31268 0.46302,2.18387 0.30149,0.87119 0.54817,1.7621 0.54817,1.9798 0,0.2177 0.0999,0.39582 0.22194,0.39582 0.12208,0 0.37939,1.01203 0.57181,2.24896 0.19242,1.23693 0.46494,2.24896 0.60561,2.24896 0.14632,0 0.1904,-0.42459 0.10303,-0.99219 z m 5.05156,0.51263 c 0.0576,-0.17281 -0.0838,-0.31419 -0.3142,-0.31419 -0.2304,0 -0.41892,0.18851 -0.41892,0.41892 0,0.46724 0.56958,0.38587 0.73312,-0.10473 z m 16.127379,-1.69852 c -0.0589,-0.47555 -0.10828,-0.15026 -0.10976,0.72287 -0.001,0.87312 0.0467,1.26221 0.10706,0.86463 0.0604,-0.39757 0.0616,-1.11195 0.003,-1.5875 z m 8.42146,1.62586 c 0.0978,-0.1582 0.0612,-0.4042 -0.0812,-0.54665 -0.16896,-0.16897 -0.30871,-0.069 -0.40197,0.28763 -0.15023,0.57449 0.17913,0.75104 0.48322,0.25902 z m 0.83707,-1.75925 c -0.0608,-0.40218 -0.1122,-0.13593 -0.11419,0.59168 -0.002,0.7276 0.0478,1.05666 0.11057,0.73124 0.0628,-0.32542 0.0644,-0.92074 0.004,-1.32292 z m -20.53048,0.80996 c -0.3119,-0.53637 -0.38722,-0.36469 -0.13191,0.30065 0.0907,0.23646 0.22072,0.37419 0.28884,0.30607 0.0681,-0.0681 -0.002,-0.34115 -0.15693,-0.60672 z m 4.18932,-1.5412 -0.16523,-2.11667 -0.0438,1.7643 c -0.0361,1.45477 0.1472,2.86867 0.3302,2.54659 0.0242,-0.0426 -0.0303,-1.03005 -0.12115,-2.19422 z m -33.077743,0.5648 c -0.251594,-0.23175 -0.286873,-0.18968 -0.154692,0.18444 0.09418,0.26657 0.187447,0.68329 0.207264,0.92604 0.01982,0.24276 0.08943,0.15976 0.154692,-0.18444 0.0653,-0.34421 -0.028,-0.76093 -0.207264,-0.92604 z m 25.339083,-0.49557 c -0.0633,-0.32912 -0.117469,-0.12215 -0.120399,0.45994 -0.003,0.58208 0.0488,0.85136 0.115059,0.59839 0.0662,-0.25296 0.0686,-0.72921 0.005,-1.05833 z M 73.916499,139.368 c -0.176354,-0.73513 -0.416428,-1.27739 -0.533498,-1.20504 -0.117069,0.0724 -0.01596,0.71655 0.224682,1.43154 0.554685,1.64806 0.728018,1.52093 0.308816,-0.2265 z m 21.154992,0.11741 c 0,-0.43819 -0.0441,-0.46094 -0.25648,-0.1323 -0.14106,0.21829 -0.25648,0.635 -0.25648,0.92605 0,0.43818 0.0441,0.46093 0.25648,0.13229 0.14106,-0.21828 0.25648,-0.635 0.25648,-0.92604 z m 15.581329,-0.1323 c 0,-0.25015 -0.0841,-0.20125 -0.22739,0.1323 -0.12507,0.29104 -0.22739,0.70776 -0.22739,0.92604 0,0.25016 0.0841,0.20125 0.22739,-0.13229 0.12506,-0.29105 0.22739,-0.70776 0.22739,-0.92605 z m 12.39041,-0.46302 c -0.0666,-0.25466 -0.121,-0.0463 -0.121,0.46302 0,0.50933 0.0545,0.71769 0.121,0.46303 0.0666,-0.25467 0.0666,-0.67139 0,-0.92605 z m -27.963639,-0.74017 c 0,-0.10652 0.20374,-0.34265 0.45274,-0.52473 0.57465,-0.42019 0.78715,-3.47556 0.39173,-5.63229 -0.16004,-0.8729 -0.18688,-2.00263 -0.064,-2.69395 l 0.21163,-1.19063 0.0595,1.5875 c 0.0916,2.44438 0.47725,3.30728 0.50954,1.1401 0.0145,-0.97368 0.13779,-1.83919 0.27398,-1.92335 0.22339,-0.13807 0.33477,0.3692 0.63673,2.89992 0.0717,0.60136 0.11353,0.50517 0.17238,-0.39688 0.0649,-0.99553 0.11524,-0.84379 0.307,0.92605 0.12614,1.16416 0.34077,2.71197 0.47696,3.43958 0.22197,1.18588 0.23593,1.10366 0.13479,-0.79375 -0.0621,-1.16417 -0.18472,-2.89057 -0.27259,-3.83646 -0.14922,-1.60652 -0.13431,-1.67406 0.22637,-1.02543 0.21237,0.38189 0.43687,1.49137 0.4989,2.4655 0.062,0.97414 0.24167,1.8523 0.39921,1.95148 0.15753,0.0992 0.35424,0.41845 0.43713,0.70949 0.192199,0.67485 -0.006,-2.07994 -0.32418,-4.49791 -0.13389,-1.01865 -0.15221,-1.97115 -0.0407,-2.11667 0.675979,-0.88218 0.527619,-8.94372 -0.15975,-8.67996 -0.29127,0.11177 -0.35861,-0.56034 -0.35861,-3.57924 0,-2.19251 0.10851,-3.78393 0.26459,-3.88038 0.14552,-0.0899 0.25518,-0.60298 0.24369,-1.1401 -0.0115,-0.53711 -0.0809,-0.82774 -0.15434,-0.64584 -0.0734,0.1819 -0.48072,0.33073 -0.90515,0.33073 -0.42444,0 -0.7717,0.11906 -0.7717,0.26458 0,0.60962 -0.55486,0.20229 -0.69777,-0.51225 -0.0854,-0.42726 -0.30391,-0.83384 -0.48547,-0.90351 -0.18156,-0.0697 -0.41521,-0.7619 -0.51922,-1.53827 l -0.18911,-1.4116 -0.68584,0.79366 c -0.43257,0.50057 -0.72675,0.67095 -0.79661,0.46138 -0.0609,-0.18276 -0.21966,-0.26499 -0.35275,-0.18274 -0.13309,0.0823 -0.24198,0.0235 -0.24198,-0.13064 0,-0.15411 -0.16461,-0.2802 -0.36579,-0.2802 -0.26328,0 -0.41954,-0.57359 -0.55759,-2.04671 l -0.19179,-2.04672 -0.51163,0.99727 c -0.60402,1.17737 -0.95564,1.07227 -1.18368,-0.35379 -0.19932,-1.24649 -0.62911,-1.12769 -0.62911,0.17389 0,1.24851 -0.52368,0.88751 -0.54772,-0.37757 l -0.0186,-0.97658 -0.48093,1.4123 c -0.55168,1.62006 -1.06946,2.32065 -1.06946,1.44705 0,-0.50437 -0.45743,-0.87497 -1.07998,-0.87497 -0.13362,0 -0.24294,0.35016 -0.24294,0.77813 0,0.42798 -0.13177,0.85958 -0.29283,0.95912 -0.20622,0.12745 -0.19169,0.24349 0.0491,0.39232 0.26624,0.16455 0.27218,0.29544 0.0268,0.59107 -0.32091,0.38667 -1.09798,2.70434 -1.10318,3.29033 -0.002,0.17733 0.15509,0.26181 0.34816,0.18772 0.40498,-0.15541 0.39863,-0.22884 0.52204,6.03337 0.048,2.43477 0.16883,4.50845 0.26855,4.60816 0.0997,0.0997 0.1813,-0.55291 0.1813,-1.45029 0,-2.05903 0.46689,-2.14285 0.61409,-0.11024 0.0606,0.83674 0.0692,0.33073 0.0191,-1.12448 -0.0501,-1.45521 -0.16902,-3.12208 -0.2643,-3.70417 -0.12478,-0.76239 -0.092,-0.98303 0.11729,-0.78905 0.17193,0.15937 0.39044,2.26519 0.53534,5.15937 0.13466,2.68956 0.37936,5.18776 0.54378,5.55156 l 0.29895,0.66146 -0.12572,-0.66146 c -0.42346,-2.22787 -0.46681,-2.91042 -0.18485,-2.91042 0.16616,0 0.2984,0.42164 0.2984,0.95136 0,0.52326 0.17185,1.2674 0.3819,1.65365 0.21004,0.38626 0.45386,1.25718 0.54183,1.93539 0.13807,1.06455 0.54886,2.0554 1.90199,4.58773 1.09797,2.0548 1.40762,2.79996 1.40762,3.38741 0,0.36824 0.12466,0.71109 0.27704,0.76188 0.15237,0.0508 0.4046,0.9518 0.56051,2.00225 l 0.28347,1.90991 0.49782,-0.63287 c 0.2738,-0.34809 0.49782,-0.72004 0.49782,-0.82657 z m 39.598149,0.60788 c -0.0734,-0.1819 -0.13345,-0.0331 -0.13345,0.33073 0,0.3638 0.06,0.51263 0.13345,0.33073 0.0734,-0.1819 0.0734,-0.47956 0,-0.66146 z m -33.85951,-1.19062 c -0.0665,-0.25466 -0.121,-0.0463 -0.121,0.46302 0,0.50932 0.0545,0.71768 0.121,0.46302 0.0666,-0.25466 0.0666,-0.67138 0,-0.92604 z m -15.676299,-1.19063 c 0.20283,-2.40693 0.20255,-2.71562 -0.009,-10.17945 -0.17221,-6.06822 -0.18054,-6.13673 -0.66997,-5.51452 -0.50971,0.648 -0.64758,1.20831 -0.29715,1.20767 0.10914,-1.9e-4 0.18614,1.45832 0.17112,3.24115 l -0.0273,3.24151 0.17512,-2.51355 c 0.13311,-1.9107 0.18726,-1.01019 0.22576,3.7547 0.0319,3.9492 -0.0472,6.32874 -0.21394,6.43176 -0.47531,0.29376 -0.24031,2.24896 0.27032,2.24896 0.11753,0 0.28644,-0.8632 0.37535,-1.91823 z m 12.49965,1.33945 c -0.0845,-0.21106 -0.14715,-0.14837 -0.15985,0.15986 -0.0115,0.27891 0.0511,0.43518 0.13897,0.34726 0.0879,-0.0879 0.0973,-0.31612 0.0209,-0.50712 z m 28.239979,-4.50595 c 0.23038,-0.54103 0.41887,-1.28556 0.41887,-1.65451 0,-0.36895 0.34856,-1.77176 0.77459,-3.11735 0.77303,-2.44158 1.22994,-5.21836 0.78554,-4.77396 -0.12768,0.12768 -0.30293,0.82264 -0.38944,1.54437 -0.23571,1.96622 -0.43992,2.24716 -0.66535,0.91535 -0.53192,-3.14249 -0.0741,-6.69828 0.97332,-7.55923 0.18948,-0.15575 0.49281,-1.30888 0.67407,-2.56251 0.31803,-2.19959 0.31002,-2.29613 -0.2289,-2.75953 -0.49072,-0.42194 -1.10017,-2.23419 -1.20698,-3.58905 -0.0201,-0.25466 -0.12275,-0.46302 -0.22817,-0.46302 -0.10542,0 -0.27202,-0.53578 -0.37022,-1.19062 -0.21362,-1.42454 -0.55831,-1.53891 -0.79738,-0.26459 -0.14096,0.7514 -0.29292,0.92605 -0.80574,0.92605 -0.56726,0 -0.63194,-0.1152 -0.63132,-1.12448 9.5e-4,-1.5442 -0.76266,-4.58758 -1.50357,-5.99253 -0.33758,-0.64014 -0.61379,-1.39886 -0.61379,-1.686051 0,-0.43154 -0.0681,-0.46563 -0.39249,-0.19642 -0.32561,0.27024 -0.43832,0.20519 -0.66146,-0.3817 -0.14793,-0.38909 -0.27836,-0.96758 -0.28985,-1.28553 -0.0194,-0.53676 -0.0368,-0.5308 -0.24292,0.0834 -0.12211,0.36381 -0.2967,1.10795 -0.38797,1.65365 -0.17493,1.045891 -0.67114,1.376681 -0.67114,0.447401 0,-0.299631 -0.11856,-0.471511 -0.26346,-0.381951 -0.1449,0.0896 -0.40423,-0.14615 -0.57629,-0.52378 -0.17948,-0.3939 -0.46193,-0.62938 -0.66259,-0.55239 -0.23349,0.0896 -0.35961,-0.10488 -0.37944,-0.58509 -0.0189,-0.45666 -0.1396,-0.20372 -0.33072,0.69273 -0.16558,0.77661 -0.39034,1.322321 -0.49948,1.212671 -0.10914,-0.109641 -0.19844,0.17768 -0.19844,0.6385 0,0.88454 -0.21993,1.04125 -0.73642,0.52476 -0.52494,-0.52494 -0.53777,-0.14729 -0.0421,1.23913 0.45512,1.27306 0.47372,1.28968 0.49345,0.44097 0.036,-1.54961 0.63305,-0.77904 1.00406,1.29593 0.3687,2.06206 0.64826,3.46767 1.12801,5.67143 0.18146,0.83355 0.2223,2.56284 0.11041,4.67483 -0.16711,3.15433 -0.14466,3.39375 0.38077,4.06174 0.30709,0.3904 0.63484,1.11756 0.72833,1.61591 0.12999,0.69288 0.24897,0.84054 0.50566,0.62751 0.51777,-0.42972 0.69148,0.70455 0.49646,3.24173 -0.18404,2.39428 0.39362,5.28255 1.03136,5.15677 0.41795,-0.0824 0.60626,3.72841 0.20411,4.13056 -0.37004,0.37004 -0.35564,2.02324 0.0176,2.02324 0.17685,0 0.24804,-0.31728 0.17811,-0.79375 -0.11725,-0.79888 0.14328,-1.07776 0.43256,-0.46302 0.0856,0.1819 0.0914,-0.29435 0.0129,-1.05833 -0.0896,-0.87245 -0.0409,-1.38906 0.131,-1.38906 0.15053,0 0.27436,0.38695 0.27517,0.85989 0.002,1.20086 0.50579,2.88904 0.80658,2.70314 0.13765,-0.0851 0.27093,-1.36804 0.29617,-2.85104 l 0.0459,-2.69637 0.15526,3.57188 c 0.18529,4.26266 0.5042,5.12697 0.97353,2.63845 0.17762,-0.94183 0.51144,-2.15507 0.74181,-2.6961 z m -3.36914,2.91845 c -0.0845,-0.21106 -0.14716,-0.14837 -0.15986,0.15986 -0.0115,0.27891 0.0511,0.43518 0.13897,0.34726 0.0879,-0.0879 0.0973,-0.31612 0.0209,-0.50712 z m -39.132119,-4.54265 c -0.058,-3.16995 -0.17572,-4.44401 -0.44005,-4.7625 -0.30955,-0.37298 -0.29982,-0.43482 0.0684,-0.43482 0.35195,0 0.42928,-0.30979 0.42928,-1.71979 0,-1.03746 -0.11153,-1.71979 -0.28109,-1.71979 -0.36538,0 -0.19491,-5.01412 0.25636,-7.54063 0.18195,-1.01864 0.56865,-2.35484 0.85932,-2.96931 0.29068,-0.61448 0.458,-1.23133 0.37181,-1.37078 -0.0862,-0.13946 -0.0357,-0.32834 0.1122,-0.41974 0.14789,-0.0914 0.2689,-0.74745 0.2689,-1.45788 0,-0.71042 0.10788,-1.35836 0.23974,-1.43985 0.13186,-0.0815 0.17785,-0.38484 0.10221,-0.6741 -0.16694,-0.63838 -0.60654,-0.43726 -0.60654,0.27748 0,0.28246 -0.11906,0.51356 -0.26458,0.51356 -0.14552,0 -0.26458,-0.23813 -0.26458,-0.52917 0,-0.29104 -0.11907,-0.52917 -0.26459,-0.52917 -0.14552,0 -0.26458,0.1786 -0.26458,0.39688 0,0.21828 -0.11906,0.39687 -0.26458,0.39687 -0.14552,0 -0.26881,-0.32742 -0.27396,-0.7276 l -0.009,-0.72761 -0.3351,0.60362 c -0.36571,0.65874 -0.75254,0.53709 -0.52933,-0.16646 0.08,-0.25232 -0.093,-0.15748 -0.40922,0.2243 -0.30135,0.36381 -0.55056,0.75076 -0.5538,0.8599 -0.003,0.10914 -0.12494,0.19844 -0.27046,0.19844 -0.14552,0 -0.26459,-0.38032 -0.26459,-0.84516 v -0.84515 l -0.62091,0.8416 c -0.64016,0.86769 -0.96659,0.86676 -0.96659,-0.003 0,-0.43121 -0.0895,-0.40211 -0.66146,0.21502 -0.3638,0.39255 -0.66145,0.82243 -0.66145,0.95529 0,0.13286 -0.11907,0.16798 -0.26459,0.078 -0.14552,-0.0899 -0.27287,-0.90063 -0.28301,-1.80155 l -0.0184,-1.63803 -0.38909,1.26581 c -0.35327,1.14929 -0.89697,1.50023 -0.89697,0.57896 0,-0.22281 -0.15977,-0.31165 -0.39687,-0.22066 -0.27539,0.10568 -0.39688,-0.0183 -0.39688,-0.40518 0,-0.66972 -0.665531,-0.74406 -0.911964,-0.10187 -0.149769,0.39029 -0.210142,0.39978 -0.421131,0.0662 -0.181654,-0.28724 -0.247362,-0.29856 -0.25035,-0.0431 -0.0022,0.19049 -0.127886,0.26981 -0.27924,0.17627 -0.33653,-0.20799 -0.130665,0.74881 0.599151,2.78468 0.286914,0.80036 0.612762,2.16958 0.724107,3.04271 l 0.202447,1.5875 0.0362,-1.48828 c 0.0199,-0.81856 0.11833,-1.89012 0.21872,-2.38125 0.1762,-0.86206 0.18903,-0.87007 0.3705,-0.23151 0.10339,0.3638 0.21606,1.13771 0.25039,1.71979 0.0388,0.65723 0.10586,0.83271 0.17707,0.46302 0.29268,-1.51957 0.47473,-0.26438 0.47473,3.27311 0,2.37809 0.11913,4.13633 0.30924,4.56401 0.3042,0.68435 0.31023,0.67844 0.37037,-0.36264 0.0479,-0.82943 0.085,-0.90096 0.17136,-0.33073 0.0606,0.40018 0.22137,0.7276 0.35723,0.7276 0.13585,0 0.24701,0.22839 0.24701,0.50753 0,0.27914 0.0893,0.72562 0.19843,0.99219 0.14577,0.35602 0.24056,0.16864 0.35714,-0.70597 0.15739,-1.1808 0.15903,-1.17771 0.19844,0.37405 0.044,1.73459 0.75698,6.07668 1.13323,6.902 0.16275,0.35698 0.19552,0.0342 0.10073,-0.99219 -0.1296,-1.40315 0.12375,-2.00083 0.50468,-1.19063 0.0855,0.1819 0.10965,-1.6338 0.0536,-4.03489 -0.066,-2.82999 -0.0308,-3.76068 0.10021,-2.64584 0.11114,0.94589 0.21669,3.4462 0.23454,5.55625 0.036,4.25005 0.28917,6.28288 0.97544,7.8309 l 0.45779,1.03265 0.17301,-0.79375 c 0.15125,-0.69392 0.21271,-0.57472 0.4887,0.94771 0.17364,0.95781 0.3157,1.94007 0.3157,2.18281 0,0.24274 0.0644,0.44135 0.14307,0.44135 0.0787,0 0.10744,-1.94746 0.0639,-4.32768 z m 50.503689,3.46778 c -0.0734,-0.1819 -0.13345,-0.0331 -0.13345,0.33073 0,0.36381 0.06,0.51263 0.13345,0.33073 0.0734,-0.1819 0.0734,-0.47955 0,-0.66146 z m -41.585979,-1.26345 c -0.62464,-1.20792 -0.74121,-0.81724 -0.19766,0.66244 0.33059,0.89994 0.48955,1.10906 0.5479,0.72078 0.0452,-0.30083 -0.11239,-0.92328 -0.35024,-1.38322 z m 8.862949,-1.56524 c 0.003,-0.26934 -0.1056,-0.23135 -0.36936,0.12937 -0.20538,0.28087 -0.30956,0.614 -0.23151,0.74028 0.1713,0.27718 0.5952,-0.33634 0.60087,-0.86965 z m 13.94312,0.1994 c -0.0845,-0.21107 -0.14715,-0.14837 -0.15985,0.15985 -0.0115,0.27892 0.0511,0.43518 0.13896,0.34727 0.0879,-0.0879 0.0973,-0.31613 0.0209,-0.50712 z m -24.268909,-0.14883 c -0.0111,-0.46495 -1.01537,-2.50175 -1.03615,-2.10154 -0.006,0.11746 0.1221,0.74254 0.2849,1.38906 0.29173,1.15857 0.77286,1.61487 0.75125,0.71248 z m 26.465369,-2.24896 c 0.002,-1.01153 0.11878,-1.78594 0.26864,-1.78594 0.15531,0 0.24998,-0.79223 0.22923,-1.91823 -0.0385,-2.08597 -0.0159,-2.14356 -0.6462,1.65365 -0.10869,0.65484 -0.34271,1.30969 -0.52005,1.45521 -0.40542,0.33268 -0.74387,1.71979 -0.41962,1.71979 0.13251,0 0.32156,0.32121 0.42009,0.71381 0.29735,1.18472 0.66334,0.17741 0.66791,-1.83829 z m -36.856869,0.28112 c -0.0845,-0.21107 -0.14716,-0.14837 -0.15986,0.15985 -0.0115,0.27892 0.0511,0.43519 0.13897,0.34727 0.0879,-0.0879 0.0973,-0.31612 0.0209,-0.50712 z m 47.656039,-2.02895 -0.0795,-1.22873 -0.59532,1.70502 c -0.75867,2.17291 -0.74791,2.37337 0.0795,1.48058 0.55728,-0.60132 0.66097,-0.94214 0.59531,-1.95687 z m -50.034739,-0.0404 c -0.16854,-0.65357 -0.37455,-1.24783 -0.45781,-1.32059 -0.0833,-0.0728 -0.59134,-0.84294 -1.12906,-1.71152 -0.53772,-0.86857 -0.97811,-1.46388 -0.97864,-1.32291 -10e-4,0.32932 2.67917,5.73609 2.78915,5.62611 0.0455,-0.0455 -0.0551,-0.61753 -0.22364,-1.27109 z m 51.850269,0.46534 c -0.0734,-0.1819 -0.13345,-0.0331 -0.13345,0.33073 0,0.36381 0.06,0.51263 0.13345,0.33073 0.0734,-0.1819 0.0734,-0.47955 0,-0.66146 z m -41.417929,-0.37703 c -0.2306,-0.39655 -0.28223,-0.40798 -0.28884,-0.0639 -0.009,0.44558 0.26966,0.84677 0.45718,0.65926 0.0619,-0.0618 -0.0139,-0.32974 -0.16834,-0.59532 z m 41.696789,-2.13651 c -0.0606,-0.40018 -0.11022,-0.0728 -0.11022,0.72761 0,0.80036 0.0496,1.12778 0.11022,0.7276 0.0606,-0.40018 0.0606,-1.05502 0,-1.45521 z m -42.077519,0.94258 c -0.0845,-0.21107 -0.14715,-0.14837 -0.15985,0.15985 -0.0115,0.27892 0.0511,0.43519 0.13897,0.34727 0.0879,-0.0879 0.0973,-0.31612 0.0209,-0.50712 z m -19.863195,-1.64158 c -0.21938,-0.52506 -0.477387,-0.95464 -0.573349,-0.95464 -0.237878,0 0.122788,1.37124 0.471032,1.79085 0.473305,0.5703 0.522388,0.16916 0.102317,-0.83621 z m 10.010465,-0.54307 c -0.0996,-0.53098 -0.24064,-0.90588 -0.3134,-0.83312 -0.0728,0.0728 -0.0508,0.56673 0.0488,1.0977 0.0996,0.53098 0.24064,0.90589 0.3134,0.83313 0.0728,-0.0728 0.0508,-0.56673 -0.0488,-1.09771 z m 9.18978,-0.35221 c 0.008,-0.58012 -0.11472,-1.27728 -0.27274,-1.54925 -0.25136,-0.43264 -0.2883,-0.39107 -0.29533,0.33233 -0.01,0.98308 0.27877,2.54643 0.43993,2.38527 0.0625,-0.0625 0.12013,-0.58823 0.12814,-1.16835 z m 43.005409,-1.57708 c -0.0608,-0.40218 -0.1122,-0.13593 -0.11419,0.59168 -0.002,0.7276 0.0478,1.05666 0.11057,0.73124 0.0628,-0.32542 0.0644,-0.92074 0.004,-1.32292 z m -44.721089,-0.26318 c -0.0671,-0.25744 -0.12638,-0.11087 -0.13178,0.32569 -0.005,0.43656 0.0495,0.64719 0.12197,0.46806 0.0725,-0.17914 0.0769,-0.53632 0.01,-0.79375 z m -8.25315,-0.86494 c -0.10165,-0.60169 -0.23649,-1.04233 -0.29963,-0.97919 -0.0631,0.0631 -0.0355,0.61093 0.0615,1.21732 0.097,0.60638 0.23179,1.04702 0.29962,0.97919 0.0678,-0.0678 0.0402,-0.61562 -0.0615,-1.21732 z m 49.976619,-0.52916 c 0.12151,-1.01426 0.0935,-1.33495 -0.0924,-1.05834 -0.23938,0.35616 -0.41169,2.89044 -0.1784,2.62379 0.053,-0.0606 0.17491,-0.76509 0.2708,-1.56545 z M 116.465,117.22769 c 0.1342,-2.41666 0.0966,-3.2838 -0.15259,-3.51616 -0.26013,-0.24258 -0.33073,-0.1198 -0.33073,0.57514 0,0.48596 -0.10311,0.99667 -0.22913,1.13491 -0.12602,0.13825 -0.16698,1.68011 -0.091,3.42636 0.17112,3.93386 0.53588,3.19828 0.80346,-1.62025 z m -31.893159,2.55041 c 0.0767,-0.29331 0.0443,-0.53329 -0.072,-0.53329 -0.21941,0 -0.53271,0.64434 -0.53271,1.09559 0,0.43125 0.45575,0.007 0.60475,-0.5623 z m 44.673789,-2.07909 c -0.21626,-0.59032 -0.25712,-0.44841 -0.25462,0.88434 0.003,1.45541 0.0242,1.51392 0.25759,0.70316 0.16392,-0.56931 0.16286,-1.13483 -0.003,-1.5875 z m -29.487379,-1.14964 c -0.0845,-0.21107 -0.14716,-0.14837 -0.15985,0.15985 -0.0115,0.27891 0.051,0.43518 0.13896,0.34727 0.0879,-0.0879 0.0973,-0.31613 0.0209,-0.50712 z m 31.300619,-1.72072 c 0.002,-0.90091 0.12312,-1.71161 0.26864,-1.80155 0.14711,-0.0909 0.25262,-1.18451 0.23764,-2.46301 l -0.0269,-2.29949 -0.49198,3.04271 c -0.54503,3.37079 -0.67179,6.21221 -0.24788,5.55625 0.14107,-0.21828 0.25831,-1.13399 0.26053,-2.03491 z m -45.058949,-1.45428 c -0.0845,-0.21107 -0.14716,-0.14837 -0.15986,0.15985 -0.0115,0.27891 0.051,0.43518 0.13897,0.34727 0.0879,-0.0879 0.0973,-0.31613 0.0209,-0.50712 z m 44.139759,-2.7936 c -0.0975,-0.91009 -0.27888,-1.65471 -0.40316,-1.65471 -0.12427,0 -0.28504,-0.32742 -0.35726,-0.7276 -0.0722,-0.40019 -0.0729,0.22019 -10e-4,1.3786 0.0714,1.15842 0.27142,2.56839 0.44447,3.13327 0.3046,0.99425 0.31753,1.00307 0.40465,0.27611 0.0495,-0.41302 0.0103,-1.49557 -0.0872,-2.40567 z m -13.59259,-2.05159 -0.24768,-1.05833 -0.0266,1.10284 c -0.0146,0.60656 0.0616,1.32094 0.16947,1.5875 0.18357,0.45383 0.20102,0.451 0.27425,-0.0445 0.043,-0.29105 -0.0333,-1.00542 -0.16947,-1.58751 z m -1.05805,-2.16068 c 0.37992,-0.45777 0.37257,-2.45764 -0.0125,-3.39557 -0.31101,-0.75758 -0.34007,-0.76964 -0.63798,-0.26458 -0.27934,0.47359 -0.32879,0.40411 -0.47082,-0.66146 -0.1422,-1.0668 -0.16283,-1.00038 -0.19844,0.63864 -0.0219,1.00609 0.16862,2.91109 0.42328,4.23333 0.45244,2.3491 0.46492,2.37398 0.54609,1.08788 0.0457,-0.72391 0.20334,-1.46112 0.35034,-1.63824 z m 12.39889,1.38255 c 0,-0.83474 -0.37748,-1.44612 -0.69613,-1.12748 -0.21111,0.21112 0.20212,2.03791 0.46099,2.03791 0.12932,0 0.23514,-0.4097 0.23514,-0.91043 z m -2.64584,-0.14791 c 0,-0.27386 -0.11906,-0.57152 -0.26458,-0.66146 -0.15478,-0.0957 -0.26458,0.17885 -0.26458,0.66146 0,0.48262 0.1098,0.75712 0.26458,0.66146 0.14552,-0.0899 0.26458,-0.38759 0.26458,-0.66146 z m 5.73864,-1.78593 c -0.0666,-0.25467 -0.121,-0.0463 -0.121,0.46302 0,0.50932 0.0545,0.71768 0.121,0.46302 0.0666,-0.25466 0.0666,-0.67138 0,-0.92604 z m -44.640489,-0.19844 c 0,-0.14552 -0.11542,-0.086 -0.25648,0.13229 -0.14106,0.21828 -0.25648,0.51594 -0.25648,0.66146 0,0.14552 0.11542,0.086 0.25648,-0.13229 0.14106,-0.21828 0.25648,-0.51594 0.25648,-0.66146 z m 39.809689,0.59761 c 0.10873,0.10787 0.11764,-0.28011 0.0198,-0.8622 -0.23816,-1.4169 -0.94912,-3.63858 -1.1122,-3.4755 -0.0719,0.0719 -0.0454,1.15384 0.0588,2.4044 0.14549,1.74655 0.26436,2.21154 0.51268,2.00545 0.1778,-0.14756 0.41224,-0.18003 0.52097,-0.0721 z m 3.77994,-1.45387 c -0.0608,-0.40218 -0.1122,-0.13593 -0.11419,0.59167 -0.002,0.72761 0.0478,1.05667 0.11058,0.73125 0.0628,-0.32542 0.0644,-0.92074 0.004,-1.32292 z m -63.241922,-1.5861 c -0.06708,-0.25743 -0.126381,-0.11087 -0.131773,0.32569 -0.0054,0.43656 0.04949,0.64719 0.121969,0.46806 0.07248,-0.17913 0.07689,-0.53632 0.0098,-0.79375 z m 59.582102,-1.09382 c -0.29266,-1.77213 -0.76337,-2.583431 -0.76337,-1.31572 0,0.63814 0.83532,3.44331 0.98175,3.29688 0.0514,-0.0514 -0.0469,-0.94288 -0.21838,-1.98116 z m -1.67286,-0.50421 c -0.27968,-0.27968 -0.32842,0.0715 -0.17519,1.26226 l 0.1532,1.19063 0.0854,-1.15202 c 0.047,-0.63361 0.0184,-1.219 -0.0634,-1.30087 z m -35.338429,1.04178 c 0,-0.48997 -0.13748,-0.74966 -0.39688,-0.74966 -0.21828,0 -0.39687,0.0992 -0.39687,0.22049 0,0.12127 0.11906,0.22049 0.26458,0.22049 0.14552,0 0.26459,0.23812 0.26459,0.52916 0,0.29104 0.0595,0.52917 0.13229,0.52917 0.0728,0 0.13229,-0.33734 0.13229,-0.74965 z m 38.539809,-0.904 c -0.0734,-0.1819 -0.13345,-0.0331 -0.13345,0.33073 0,0.36381 0.06,0.51263 0.13345,0.33073 0.0734,-0.1819 0.0734,-0.47956 0,-0.66146 z m -11.81689,-1.53697 c 0,-0.299631 -0.11387,-0.474411 -0.25303,-0.388401 -0.13917,0.086 -0.18596,0.331161 -0.10399,0.544781 0.20988,0.54693 0.35702,0.48248 0.35702,-0.15638 z M 98.170751,99.086869 c -0.0845,-0.21107 -0.14716,-0.14838 -0.15985,0.15985 -0.0115,0.27891 0.051,0.43518 0.13896,0.34727 0.0879,-0.0879 0.0973,-0.31613 0.0209,-0.50712 z m 0.49231,-1.76597 c -0.0841,-0.26509 -0.44859,-0.75969 -0.80989,-1.09911 -0.82504,-0.77509 -0.85745,-0.31248 -0.0893,1.27433 0.46399,0.95848 0.61186,1.09352 0.80989,0.73966 0.13324,-0.23809 0.17342,-0.64979 0.0893,-0.91488 z m -9.69824,-4.563937 c 0.24075,-0.69062 0.22821,-0.77448 -0.0778,-0.5205 -0.4248,0.35256 -0.7369,1.343767 -0.4231,1.343767 0.11766,0 0.34307,-0.37047 0.50092,-0.823267 z m 4.52727,0.407917 c 0,-0.400087 -1.48436,-2.759647 -1.73605,-2.759647 -0.12172,0 0.29605,1.0378 0.98437,2.44533 0.39318,0.804007 0.75168,0.953917 0.75168,0.314317 z m -13.10817,-0.661267 c -0.24881,-0.40257 -0.64633,-0.2796 -0.48184,0.14905 0.0834,0.21745 0.26024,0.328287 0.39289,0.24631 0.13264,-0.082 0.17267,-0.25989 0.0889,-0.39536 z m 10.11653,-2.82095 c -0.0671,-0.25743 -0.12638,-0.11087 -0.13178,0.32569 -0.005,0.43656 0.0495,0.64719 0.12197,0.46806 0.0725,-0.17913 0.0769,-0.53632 0.01,-0.79375 z m 46.704029,74.955748 c -0.38382,-0.84241 -0.41892,-1.73735 -0.0681,-1.73735 0.27771,0 0.65593,1.64005 0.49179,2.13248 -0.0566,0.16983 -0.24726,-0.008 -0.42366,-0.39513 z m -56.258019,-5.61168 c -0.21078,-0.54929 0.0667,-0.85756 0.35376,-0.39304 0.15977,0.25851 0.35938,0.14444 0.77937,-0.44538 0.31052,-0.43609 0.56459,-0.92334 0.56459,-1.08278 0,-0.15944 0.11906,-0.28989 0.26458,-0.28989 0.38187,0 0.32523,0.69531 -0.0905,1.11104 -0.1953,0.1953 -0.49715,0.62053 -0.67077,0.94495 -0.3714,0.69395 -0.96484,0.7706 -1.20103,0.1551 z"
       id="path1" /></g></svg>
